<?xml version="1.0" standalone="no"?>
<!DOCTYPE svg PUBLIC "-//W3C//DTD SVG 20010904//EN"
 "http://www.w3.org/TR/2001/REC-SVG-20010904/DTD/svg10.dtd">
<svg version="1.0" xmlns="http://www.w3.org/2000/svg"
 width="260.000000pt" height="260.000000pt" viewBox="0 0 260.000000 260.000000"
 preserveAspectRatio="xMidYMid meet">
<metadata>
Created by potrace 1.14, written by Peter Selinger 2001-2017
</metadata>
<g transform="translate(0.000000,260.000000) scale(0.100000,-0.100000)"
fill="#000000" stroke="none">
<path d="M1198 2592 c-32 -1 -58 -6 -58 -10 0 -4 -17 -7 -37 -8 -63 -1 -91 -8
-86 -19 2 -8 -14 -12 -49 -12 -95 0 -372 -132 -463 -220 -11 -10 -28 -22 -38
-26 -13 -5 -17 -13 -12 -28 6 -17 4 -20 -13 -15 -21 7 -38 -9 -60 -53 -7 -14
-10 -17 -7 -6 4 13 -8 5 -35 -23 -22 -24 -37 -48 -34 -54 4 -6 3 -8 -3 -5 -5
3 -20 -7 -31 -23 -27 -36 -27 -43 -2 -35 11 4 20 2 20 -4 0 -6 -13 -11 -30
-11 -30 0 -57 -30 -45 -50 3 -6 0 -10 -7 -10 -16 0 -48 -50 -48 -74 0 -9 -5
-16 -11 -16 -5 0 -7 -4 -4 -10 3 -5 2 -10 -3 -10 -16 0 -54 -99 -47 -123 5
-16 4 -18 -3 -8 -11 15 -30 -38 -55 -154 -26 -118 -28 -137 -14 -129 9 6 9 4
1 -7 -6 -8 -14 -44 -18 -82 -5 -55 -4 -68 9 -73 8 -3 15 -11 15 -16 0 -6 -7
-5 -16 3 -14 12 -15 8 -10 -32 3 -24 8 -73 11 -109 6 -63 41 -225 53 -245 4
-5 7 -14 8 -20 6 -33 47 -124 54 -120 5 3 12 0 16 -6 4 -8 3 -9 -4 -5 -18 11
-15 0 24 -72 49 -91 93 -154 104 -147 5 3 11 1 15 -5 3 -5 1 -10 -6 -10 -8 0
-8 -4 1 -15 7 -8 17 -12 23 -8 6 3 7 1 3 -6 -9 -14 128 -157 189 -198 22 -15
51 -37 65 -49 14 -13 31 -24 39 -26 8 -2 23 -11 33 -21 11 -10 26 -16 34 -13
8 3 12 2 9 -3 -5 -9 32 -27 48 -23 4 1 7 -2 7 -7 0 -21 292 -122 307 -107 4 3
11 2 17 -3 6 -5 47 -12 91 -16 44 -3 93 -8 108 -11 15 -3 70 -3 122 1 72 6 95
11 95 22 0 10 4 11 19 3 29 -15 38 -13 44 11 3 12 10 18 16 14 6 -3 9 -11 6
-16 -7 -10 18 -10 55 0 14 4 25 13 25 21 0 21 23 23 28 3 4 -16 5 -16 6 2 1
17 3 17 11 5 7 -12 12 -12 22 -2 6 6 20 12 30 12 11 0 48 14 83 30 35 17 67
30 71 30 17 0 174 103 174 115 0 7 8 12 18 11 9 0 16 5 14 12 -1 8 2 11 7 8
12 -8 97 71 87 81 -4 4 -11 1 -16 -7 -12 -19 -22 -8 -14 14 4 9 12 15 20 12 7
-3 15 0 18 7 2 7 5 3 5 -7 1 -18 4 -17 31 9 16 15 27 33 23 38 -3 6 -1 7 4 4
14 -9 37 19 27 34 -4 7 -3 9 4 5 12 -7 51 40 114 139 55 87 62 106 46 118 -10
7 -9 8 3 4 11 -4 21 6 33 30 9 20 14 38 11 41 -3 3 1 12 9 21 12 15 46 104 46
123 0 4 -8 8 -17 9 -13 0 -12 3 6 10 14 6 21 15 18 23 -3 8 -2 16 3 18 27 9
47 381 22 411 -9 10 -10 17 -2 22 5 3 10 13 10 21 0 9 -5 12 -12 8 -7 -4 -8
-3 -4 5 4 6 2 18 -4 26 -9 11 -9 15 -1 15 16 0 14 16 -4 34 -18 17 -20 30 -3
20 7 -5 9 -2 5 9 -3 8 -9 32 -13 52 -4 25 -11 35 -20 31 -8 -3 -14 -1 -14 4 0
6 4 10 9 10 12 0 -8 62 -23 72 -6 4 -21 0 -34 -8 -23 -15 -24 -15 -17 8 10 30
14 35 23 23 10 -14 32 -17 32 -5 0 6 -5 10 -11 10 -5 0 -8 4 -5 9 6 9 -52 141
-61 141 -3 0 -3 -17 0 -37 3 -21 3 -32 0 -25 -2 6 -11 12 -19 12 -17 0 -17 1
0 36 17 32 13 46 -12 38 -14 -5 -14 -4 -3 4 12 9 11 16 -9 45 -14 20 -29 35
-34 34 -5 -1 -12 7 -14 17 -5 23 -26 46 -41 46 -6 0 -11 9 -11 21 0 26 -160
191 -178 184 -7 -3 -11 -1 -8 4 3 4 -9 18 -26 31 -17 12 -28 18 -24 11 4 -6 3
-11 -2 -11 -5 0 -12 8 -15 19 -6 25 -132 95 -158 88 -14 -4 -19 -2 -15 8 3 8
-16 22 -55 39 -61 26 -110 36 -79 16 9 -6 10 -10 3 -10 -7 0 -17 9 -23 20 -8
15 -17 19 -31 15 -12 -4 -27 -1 -37 8 -36 32 -282 59 -444 49z m139 -28 c2 -5
-5 -10 -16 -10 -11 0 -17 5 -14 14 6 14 25 12 30 -4z m127 -7 c-3 -8 -11 -14
-19 -14 -21 0 -19 15 3 20 9 3 18 5 19 6 1 0 0 -5 -3 -12z m-394 -7 c0 -5 -4
-10 -10 -10 -5 0 -10 5 -10 10 0 6 5 10 10 10 6 0 10 -4 10 -10z m466 -17 c-7
-7 -26 7 -26 19 0 6 6 6 15 -2 9 -7 13 -15 11 -17z m54 2 c-7 -9 -15 -13 -19
-10 -3 3 1 10 9 15 21 14 24 12 10 -5z m-213 -1 c-3 -3 -12 -4 -19 -1 -8 3 -5
6 6 6 11 1 17 -2 13 -5z m-292 -24 c-3 -5 -13 -10 -21 -10 -8 0 -14 5 -14 10
0 6 9 10 21 10 11 0 17 -4 14 -10z m472 -10 c13 0 13 -3 2 -16 -12 -14 -14
-14 -20 3 -4 10 -8 23 -8 28 1 6 3 4 6 -2 2 -7 12 -13 20 -13z m-227 0 c-8 -5
-19 -10 -25 -10 -5 0 -3 5 5 10 8 5 20 10 25 10 6 0 3 -5 -5 -10z m-295 -18
c-3 -3 -11 0 -18 7 -9 10 -8 11 6 5 10 -3 15 -9 12 -12z m155 8 c0 -5 -2 -10
-4 -10 -3 0 -8 5 -11 10 -3 6 -1 10 4 10 6 0 11 -4 11 -10z m200 0 c0 -5 -2
-10 -4 -10 -3 0 -8 5 -11 10 -3 6 -1 10 4 10 6 0 11 -4 11 -10z m320 -12 c0
-5 -11 -8 -25 -8 -14 0 -25 3 -25 8 0 4 11 7 25 7 14 0 25 -3 25 -7z m74 -3
c3 -9 0 -15 -9 -15 -9 0 -12 6 -9 15 4 8 7 15 9 15 2 0 5 -7 9 -15z m-614 -5
c0 -5 -5 -10 -11 -10 -5 0 -7 5 -4 10 3 6 8 10 11 10 2 0 4 -4 4 -10z m426
-17 c-10 -10 -19 5 -10 18 6 11 8 11 12 0 2 -7 1 -15 -2 -18z m-548 5 c-6 -18
-28 -21 -28 -4 0 9 7 16 16 16 9 0 14 -5 12 -12z m62 2 c0 -5 -4 -10 -10 -10
-5 0 -10 5 -10 10 0 6 5 10 10 10 6 0 10 -4 10 -10z m190 6 c0 -2 -7 -7 -16
-10 -8 -3 -12 -2 -9 4 6 10 25 14 25 6z m184 -11 c4 -10 -1 -15 -14 -15 -20 0
-26 11 -13 23 10 11 20 8 27 -8z m36 6 c0 -6 -4 -13 -10 -16 -5 -3 -10 1 -10
9 0 9 5 16 10 16 6 0 10 -4 10 -9z m-272 -16 c7 -6 -11 -34 -25 -39 -13 -5
-14 -4 -3 9 11 13 10 18 -6 31 -18 14 -18 15 6 8 14 -3 26 -8 28 -9z m87 5 c3
-5 -1 -10 -10 -10 -9 0 -13 5 -10 10 3 6 8 10 10 10 2 0 7 -4 10 -10z m235
-16 c0 -8 -4 -14 -10 -14 -5 0 -10 9 -10 21 0 11 5 17 10 14 6 -3 10 -13 10
-21z m120 16 c0 -5 -2 -10 -4 -10 -3 0 -8 5 -11 10 -3 6 -1 10 4 10 6 0 11 -4
11 -10z m-640 -30 c0 -5 -4 -10 -10 -10 -5 0 -10 5 -10 10 0 6 5 10 10 10 6 0
10 -4 10 -10z m295 0 c3 -5 1 -10 -4 -10 -6 0 -11 5 -11 10 0 6 2 10 4 10 3 0
8 -4 11 -10z m92 -12 c-3 -8 -6 -5 -6 6 -1 11 2 17 5 13 3 -3 4 -12 1 -19z
m43 0 c0 -25 -20 -45 -44 -45 -17 0 -17 1 -2 12 9 7 16 21 16 32 0 11 7 20 15
20 8 0 15 -9 15 -19z m63 4 c-2 -8 7 -10 26 -6 16 4 32 1 35 -5 5 -7 1 -9 -8
-5 -11 4 -16 0 -16 -11 0 -14 -3 -15 -15 -5 -8 7 -15 10 -15 6 0 -3 -9 2 -20
11 -25 21 -26 36 -2 31 9 -2 16 -9 15 -16z m116 -27 c0 -5 -6 -1 -14 9 -8 11
-15 24 -15 30 0 5 7 1 15 -10 8 -10 14 -23 14 -29z m261 35 c0 -5 -2 -10 -4
-10 -3 0 -8 5 -11 10 -3 6 -1 10 4 10 6 0 11 -4 11 -10z m-760 -15 c0 -12 -19
-12 -23 0 -4 9 -1 12 9 8 7 -3 14 -7 14 -8z m-230 -5 c0 -5 -7 -10 -16 -10 -8
0 -12 5 -9 10 3 6 10 10 16 10 5 0 9 -4 9 -10z m77 -12 c-3 -8 -6 -5 -6 6 -1
11 2 17 5 13 3 -3 4 -12 1 -19z m281 8 c-7 -7 -19 -11 -25 -9 -18 7 -5 23 18
23 16 0 18 -2 7 -14z m445 7 c-7 -2 -21 -2 -30 0 -10 3 -4 5 12 5 17 0 24 -2
18 -5z m105 -5 c-2 -6 -10 -13 -16 -14 -7 -1 -8 0 -2 3 5 2 8 9 4 14 -3 5 0 9
6 9 7 0 10 -5 8 -12z m42 -2 c0 -7 -9 -16 -20 -19 -17 -4 -18 -2 -9 14 11 22
29 25 29 5z m88 -3 c-2 -9 -9 -18 -16 -19 -7 -1 -8 0 -3 2 6 3 7 12 4 20 -3 8
0 14 7 14 6 0 10 -8 8 -17z m-1268 -3 c0 -5 -5 -10 -11 -10 -5 0 -7 5 -4 10 3
6 8 10 11 10 2 0 4 -4 4 -10z m500 6 c0 -3 -4 -8 -10 -11 -5 -3 -10 -1 -10 4
0 6 5 11 10 11 6 0 10 -2 10 -4z m159 -19 c-9 -7 -14 -18 -12 -24 3 -7 -3 -13
-12 -13 -9 0 -13 5 -10 10 3 6 1 10 -4 10 -6 0 -11 7 -11 15 0 11 7 14 25 9
17 -4 25 -2 25 7 0 7 3 9 7 5 5 -4 1 -13 -8 -19z m-719 2 c0 -5 -4 -7 -10 -4
-5 3 -10 1 -10 -6 0 -7 -3 -10 -6 -6 -8 7 4 27 17 27 5 0 9 -5 9 -11z m80 -9
c-6 -11 -13 -20 -16 -20 -2 0 0 9 6 20 6 11 13 20 16 20 2 0 0 -9 -6 -20z
m510 10 c0 -5 -4 -10 -10 -10 -5 0 -10 5 -10 10 0 6 5 10 10 10 6 0 10 -4 10
-10z m495 0 c-3 -5 -11 -10 -16 -10 -6 0 -7 5 -4 10 3 6 11 10 16 10 6 0 7 -4
4 -10z m-589 -12 c5 -7 2 -9 -9 -5 -11 4 -14 2 -10 -9 4 -10 -2 -17 -16 -21
-11 -3 -18 -9 -15 -14 10 -16 -2 -9 -21 11 -18 20 -18 21 0 14 14 -6 17 -4 12
9 -9 23 46 37 59 15z m494 -3 c0 -8 -6 -15 -14 -15 -8 0 -17 -8 -19 -17 -4
-14 -5 -12 -6 5 0 12 4 22 10 22 5 0 7 5 4 10 -3 6 1 10 9 10 9 0 16 -7 16
-15z m290 11 c0 -3 -4 -8 -10 -11 -5 -3 -10 -1 -10 4 0 6 5 11 10 11 6 0 10
-2 10 -4z m-1230 -41 c14 -19 14 -19 -2 -6 -10 7 -18 18 -18 24 0 6 1 8 3 6 1
-2 9 -13 17 -24z m691 8 c13 -16 12 -17 -3 -4 -10 7 -18 15 -18 17 0 8 8 3 21
-13z m39 -4 c0 -14 -17 -10 -23 5 -4 10 -1 13 9 9 7 -3 14 -9 14 -14z m126
-31 c1 -16 -4 -32 -14 -39 -14 -11 -15 -11 -4 1 20 23 14 33 -17 28 -20 -3
-27 0 -24 8 2 6 12 10 23 7 10 -3 20 0 24 5 3 5 -2 9 -11 8 -10 0 -19 8 -21
18 -4 19 -3 19 18 5 13 -8 24 -27 26 -41z m258 37 c-7 -16 -24 -21 -24 -6 0 8
7 13 27 20 1 1 0 -6 -3 -14z m76 5 c0 -5 -4 -10 -10 -10 -5 0 -10 5 -10 10 0
6 5 10 10 10 6 0 10 -4 10 -10z m-1051 -44 c-9 -8 -10 -7 -5 7 3 10 7 24 7 30
1 7 3 4 6 -7 3 -10 -1 -23 -8 -30z m931 34 c0 -5 -4 -10 -10 -10 -5 0 -8 -6
-6 -12 1 -7 1 -9 -2 -4 -2 4 -15 -5 -28 -20 -18 -23 -23 -25 -24 -11 0 9 -5
17 -11 17 -5 0 -8 4 -4 10 3 5 11 7 18 4 7 -2 22 4 32 15 22 22 35 26 35 11z
m-1135 -10 c-3 -5 -14 -10 -23 -9 -14 0 -13 2 3 9 27 11 27 11 20 0z m545 -19
c0 -29 10 -30 48 -8 29 17 34 18 23 4 -7 -9 -18 -17 -24 -17 -5 0 -18 -9 -27
-20 -11 -13 -21 -17 -25 -10 -3 5 0 10 7 11 7 0 2 5 -12 10 -20 8 -22 12 -10
19 13 8 12 11 -5 24 -20 15 -20 15 3 9 12 -3 22 -13 22 -22z m-630 3 c0 -8 -5
-12 -10 -9 -6 4 -8 11 -5 16 9 14 15 11 15 -7z m40 12 c0 -3 -4 -8 -10 -11 -5
-3 -10 -1 -10 4 0 6 5 11 10 11 6 0 10 -2 10 -4z m335 -6 c3 -5 1 -10 -4 -10
-6 0 -11 5 -11 10 0 6 2 10 4 10 3 0 8 -4 11 -10z m112 4 c-3 -3 -12 -4 -19
-1 -8 3 -5 6 6 6 11 1 17 -2 13 -5z m627 -26 c-3 -4 -11 -5 -19 -2 -11 5 -12
9 -2 19 12 13 31 -1 21 -17z m313 10 c-3 -8 -6 -5 -6 6 -1 11 2 17 5 13 3 -3
4 -12 1 -19z m-1102 2 c3 -5 1 -10 -4 -10 -6 0 -11 5 -11 10 0 6 2 10 4 10 3
0 8 -4 11 -10z m535 0 c0 -5 -4 -10 -10 -10 -5 0 -10 5 -10 10 0 6 5 10 10 10
6 0 10 -4 10 -10z m65 0 c3 -5 1 -10 -4 -10 -6 0 -11 5 -11 10 0 6 2 10 4 10
3 0 8 -4 11 -10z m465 1 c0 -6 -4 -12 -8 -15 -5 -3 -9 1 -9 9 0 8 4 15 9 15 4
0 8 -4 8 -9z m-860 -9 c0 -5 -7 -9 -15 -9 -8 0 -12 4 -9 9 3 4 9 8 15 8 5 0 9
-4 9 -8z m230 -2 c-8 -5 -19 -10 -25 -10 -5 0 -3 5 5 10 8 5 20 10 25 10 6 0
3 -5 -5 -10z m546 -5 c-18 -14 -18 -15 -1 -21 16 -6 16 -8 2 -19 -11 -8 -13
-16 -6 -26 8 -12 10 -12 19 1 9 14 12 12 9 -6 0 -4 5 -10 12 -15 23 -14 3 -20
-25 -8 -14 7 -26 18 -26 26 0 7 -6 13 -12 13 -9 0 -9 3 1 9 8 5 11 16 7 26 -8
22 1 35 22 35 15 -1 15 -2 -2 -15z m-1066 1 c0 -9 -30 -14 -35 -6 -4 6 3 10
14 10 12 0 21 -2 21 -4z m230 -6 c0 -5 -4 -10 -10 -10 -5 0 -10 5 -10 10 0 6
5 10 10 10 6 0 10 -4 10 -10z m120 -5 c10 -12 10 -15 -4 -15 -9 0 -16 7 -16
15 0 8 2 15 4 15 2 0 9 -7 16 -15z m234 0 c3 -8 1 -15 -3 -15 -5 0 -11 7 -15
15 -3 8 -1 15 3 15 5 0 11 -7 15 -15z m591 5 c3 -5 1 -10 -4 -10 -6 0 -11 5
-11 10 0 6 2 10 4 10 3 0 8 -4 11 -10z m-1075 -15 c0 -9 -6 -12 -15 -9 -8 4
-12 10 -9 15 8 14 24 10 24 -6z m105 -14 c-6 -5 -25 10 -25 20 0 5 6 4 14 -3
8 -7 12 -15 11 -17z m479 23 c9 -3 16 -11 16 -17 0 -7 -4 -7 -12 1 -9 9 -16 8
-29 -4 -16 -14 -17 -14 -14 3 2 10 4 19 4 21 2 4 19 2 35 -4z m-921 -19 c4 -8
3 -16 -1 -19 -4 -3 -9 4 -9 15 -2 23 3 25 10 4z m397 -6 c0 -14 -17 -10 -23 5
-4 10 -1 13 9 9 7 -3 14 -9 14 -14z m130 11 c0 -5 -4 -10 -10 -10 -5 0 -10 5
-10 10 0 6 5 10 10 10 6 0 10 -4 10 -10z m247 -30 c-1 -16 -7 -26 -14 -23 -6
2 -13 -3 -15 -12 -3 -14 -6 -13 -26 6 -18 16 -21 24 -12 33 8 8 13 7 20 -4 8
-13 10 -12 10 3 0 9 5 17 10 17 6 0 10 -5 10 -12 0 -6 3 -8 6 -5 4 4 1 13 -6
22 -11 13 -10 14 3 9 10 -4 15 -16 14 -34z m347 25 c-4 -8 -11 -12 -16 -9 -6
4 -5 10 3 15 19 12 19 11 13 -6z m-934 -14 c0 -20 -13 -35 -23 -25 -7 8 4 44
14 44 5 0 9 -9 9 -19z m840 9 c0 -5 -5 -10 -11 -10 -5 0 -7 5 -4 10 3 6 8 10
11 10 2 0 4 -4 4 -10z m400 -4 c8 -2 15 -7 14 -12 -1 -18 -35 -15 -67 6 l-32
22 35 -7 c19 -4 42 -8 50 -9z m56 -1 c-21 -16 -32 -13 -21 4 3 6 14 11 23 11
15 -1 15 -2 -2 -15z m74 5 c13 -9 13 -11 0 -19 -10 -7 -17 -6 -22 2 -17 26 -5
35 22 17z m-1600 -10 c0 -5 -4 -10 -10 -10 -5 0 -10 5 -10 10 0 6 5 10 10 10
6 0 10 -4 10 -10z m860 0 c0 -5 -4 -10 -10 -10 -5 0 -10 5 -10 10 0 6 5 10 10
10 6 0 10 -4 10 -10z m40 0 c0 -5 -7 -10 -15 -10 -8 0 -15 5 -15 10 0 6 7 10
15 10 8 0 15 -4 15 -10z m80 -24 c0 -6 -5 -4 -11 4 -9 12 -10 11 -6 -6 4 -17
0 -21 -18 -20 -21 1 -25 26 -4 26 5 0 9 7 9 16 0 14 3 14 15 4 8 -7 15 -18 15
-24z m228 12 c-2 -16 -11 -22 -35 -24 -29 -2 -31 -1 -18 13 9 8 22 12 30 9 8
-3 14 -2 14 2 -2 12 1 22 7 22 3 0 4 -10 2 -22z m-584 -3 c-4 -8 -8 -15 -10
-15 -2 0 -4 7 -4 15 0 8 4 15 10 15 5 0 7 -7 4 -15z m-199 -31 c0 -10 8 -20
18 -22 9 -2 17 -8 17 -12 0 -6 12 -5 28 0 24 9 25 9 9 -4 -10 -8 -18 -18 -18
-23 0 -4 -9 -19 -20 -31 -21 -25 -20 -40 3 -26 22 14 37 13 31 -2 -3 -8 -11
-14 -19 -14 -8 0 -14 -7 -14 -15 0 -8 -4 -15 -8 -15 -4 0 -8 -9 -9 -19 -2 -20
22 -35 38 -25 5 3 9 -2 9 -11 0 -13 -4 -14 -20 -5 -11 6 -25 8 -30 5 -15 -9
-1 -27 16 -21 7 3 16 0 20 -6 4 -7 3 -8 -4 -4 -7 4 -12 2 -12 -3 0 -6 -7 -11
-16 -11 -8 0 -13 4 -9 9 3 5 1 12 -4 16 -5 3 -8 14 -6 25 2 11 -2 20 -8 20 -7
0 -12 15 -13 33 -1 17 1 26 3 20 7 -20 25 -15 22 5 -2 9 3 27 10 40 16 29 5
62 -20 62 -11 0 -17 -4 -14 -10 3 -5 0 -22 -8 -36 l-14 -27 -5 26 c-3 15 -2
24 3 22 12 -8 21 53 10 72 -6 10 -11 12 -11 6 0 -7 -5 -13 -11 -13 -8 0 -8 4
1 14 15 20 55 5 55 -20z m115 21 c5 3 10 -1 10 -9 0 -9 5 -16 11 -16 5 0 7 -4
4 -10 -10 -17 -20 -12 -45 23 -13 17 -16 26 -7 19 9 -8 21 -11 27 -7z m163 -2
c-3 -7 -11 -13 -19 -13 -7 0 -11 6 -8 13 3 8 11 14 18 14 8 0 12 -6 9 -14z
m387 7 c0 -5 -5 -10 -11 -10 -5 0 -7 5 -4 10 3 6 8 10 11 10 2 0 4 -4 4 -10z
m-196 -24 c-6 -16 -24 -23 -24 -8 0 10 22 33 27 28 2 -2 1 -11 -3 -20z m-707
-1 c0 -8 -4 -12 -9 -9 -5 3 -6 10 -3 15 9 13 12 11 12 -6z m163 -21 c0 -13 0
-27 1 -31 0 -4 -4 -9 -10 -11 -6 -2 -11 3 -11 12 0 10 -6 13 -15 10 -18 -7
-21 26 -4 43 17 17 39 4 39 -23z m1323 9 c-24 -8 -26 -8 -29 9 -2 15 1 16 19
6 13 -7 17 -13 10 -15z m-583 6 c11 -8 12 -12 3 -16 -16 -6 -17 -33 -2 -33 8
0 8 -5 -1 -15 -14 -16 -10 -18 14 -9 9 3 13 11 9 17 -4 7 6 2 21 -11 16 -12
32 -19 37 -16 5 3 9 0 9 -6 0 -6 -7 -13 -15 -16 -8 -4 -15 -12 -15 -20 0 -8
-5 -14 -11 -14 -6 0 -9 12 -8 28 2 15 0 28 -4 30 -16 5 -26 1 -29 -13 -5 -23
-28 -2 -30 28 -3 32 -5 32 -30 11 -14 -14 -20 -14 -33 -4 -12 10 -15 10 -15
-4 0 -9 -5 -16 -10 -16 -7 0 -7 7 0 20 6 11 15 18 21 15 5 -4 9 1 9 9 0 11 9
16 30 16 17 0 30 5 30 11 0 5 -4 7 -10 4 -5 -3 -10 -1 -10 4 0 14 21 14 40 0z
m110 -12 c0 -1 -11 -2 -25 -2 -25 0 -31 6 -19 18 6 5 44 -9 44 -16z m330 8 c0
-8 -4 -15 -10 -15 -5 0 -7 7 -4 15 4 8 8 15 10 15 2 0 4 -7 4 -15z m90 11 c0
-11 -19 -15 -25 -6 -3 5 1 10 9 10 9 0 16 -2 16 -4z m-1510 -16 c0 -5 -4 -10
-10 -10 -5 0 -10 5 -10 10 0 6 5 10 10 10 6 0 10 -4 10 -10z m138 -10 c-7 -11
-15 -15 -17 -9 -2 6 3 15 10 20 20 12 21 11 7 -11z m132 -2 c0 -19 -2 -20 -10
-8 -13 19 -13 30 0 30 6 0 10 -10 10 -22z m384 13 c3 -5 -1 -11 -9 -14 -9 -4
-12 -1 -8 9 6 16 10 17 17 5z m224 -18 c-6 -7 -18 -12 -27 -11 -9 2 -15 -3
-13 -9 1 -7 -3 -13 -9 -13 -6 0 -8 -8 -5 -17 6 -17 5 -17 -8 0 -17 22 -22 22
-29 -3 -3 -12 0 -20 8 -20 7 0 15 -7 19 -15 8 -21 27 -19 20 3 -5 15 -4 14 6
-2 9 -13 9 -24 1 -42 -7 -16 -7 -24 0 -24 6 0 8 -4 5 -9 -3 -5 1 -14 9 -21 12
-10 15 -9 15 5 0 27 25 11 28 -18 2 -17 10 -27 20 -28 14 0 14 -2 2 -6 -16 -7
-45 -33 -36 -33 3 0 20 9 37 19 31 19 31 19 8 26 -23 8 -23 8 -4 15 12 4 25 1
33 -7 12 -11 11 -17 -2 -38 -15 -23 -15 -25 -1 -25 9 0 14 4 11 8 -7 11 30 42
40 34 3 -4 2 3 -5 15 -7 14 -17 20 -29 17 -9 -3 -6 1 7 9 17 10 20 16 10 19
-11 5 -12 8 -1 19 9 10 15 11 20 3 4 -6 14 -14 22 -17 11 -4 10 -6 -5 -7 -19
-1 -19 -1 -2 -14 16 -12 21 -11 42 10 24 24 65 33 65 15 0 -15 -31 -42 -41
-36 -5 4 -9 2 -9 -4 0 -5 16 -15 36 -21 27 -9 33 -15 23 -21 -22 -14 -39 -10
-39 8 0 14 -2 15 -12 4 -11 -10 -10 -14 4 -22 18 -10 14 -36 -6 -52 -8 -6 -7
-10 2 -14 6 -2 12 -13 12 -24 0 -11 7 -19 17 -19 20 0 53 28 53 47 0 7 10 13
23 13 21 1 22 1 2 13 -11 7 -20 17 -21 22 -3 22 -17 55 -24 55 -17 0 -18 30
-3 46 14 13 14 17 2 25 -8 5 -9 9 -3 9 19 0 37 -27 22 -32 -20 -7 13 -36 34
-30 10 2 18 -1 18 -7 0 -6 5 -11 11 -11 5 0 7 5 4 10 -3 6 -1 10 4 10 6 0 11
-7 11 -15 0 -8 5 -14 11 -13 6 2 13 -2 15 -7 4 -9 -48 -39 -68 -40 -18 0 -18
-15 0 -15 11 0 23 4 27 9 9 16 64 40 70 31 3 -5 -8 -14 -25 -22 -16 -7 -30
-18 -30 -25 0 -6 -3 -19 -7 -29 -4 -12 -3 -15 5 -10 13 8 72 -20 72 -34 0 -5
10 -18 22 -29 18 -18 20 -24 10 -46 -7 -15 -16 -24 -20 -21 -4 2 -8 -4 -8 -14
0 -14 4 -16 15 -10 9 5 24 4 35 -2 13 -7 21 -7 25 0 4 6 11 8 17 4 12 -8 15
-42 3 -42 -4 0 -9 8 -12 18 -3 15 -5 15 -11 -3 -5 -11 -10 -26 -12 -32 -4 -14
-25 -18 -23 -5 4 21 -3 30 -19 25 -22 -5 -43 17 -46 51 -3 24 17 42 34 31 5
-3 11 -2 14 3 2 4 -4 14 -16 21 -11 7 -17 8 -13 2 3 -6 1 -11 -5 -11 -6 0 -8
10 -4 25 7 28 -8 34 -28 10 -7 -9 -23 -27 -35 -39 -12 -13 -19 -27 -15 -30 3
-4 -1 -4 -10 -1 -13 5 -19 0 -24 -20 -8 -31 -4 -37 16 -24 11 7 12 11 3 17 -8
5 -1 12 20 21 18 8 37 20 44 28 9 11 11 5 8 -29 -2 -24 -4 -44 -4 -46 -1 -1
-10 2 -22 9 -15 8 -24 8 -32 0 -8 -8 -3 -11 18 -13 37 -1 46 -3 67 -12 16 -7
35 -38 20 -33 -4 1 -8 -2 -9 -8 -1 -5 5 -9 13 -7 21 4 18 -41 -3 -54 -30 -17
-56 -11 -58 13 -1 13 3 19 11 16 6 -2 15 1 20 8 4 8 3 10 -5 5 -7 -4 -15 2
-20 16 -9 22 -10 22 -10 2 -1 -12 -8 -25 -17 -28 -16 -6 -16 -8 0 -24 20 -23
21 -39 1 -22 -9 7 -19 9 -23 5 -4 -4 -1 -10 6 -12 6 -3 9 -10 6 -15 -5 -7 -2
-8 5 -4 8 5 11 3 9 -5 -1 -8 2 -15 7 -16 6 -1 9 5 9 13 -1 9 10 17 27 21 16 3
29 9 29 14 0 5 5 9 11 9 6 0 9 -6 6 -14 -4 -9 3 -16 16 -20 22 -5 22 -5 2 -20
-25 -19 -39 -20 -32 -3 3 7 -3 13 -13 13 -15 0 -16 -4 -8 -19 7 -13 18 -17 41
-15 24 2 33 -1 35 -16 3 -11 0 -16 -7 -12 -6 4 -11 0 -11 -9 0 -8 -11 -20 -25
-25 -16 -6 -23 -14 -19 -25 3 -8 2 -15 -4 -15 -6 0 -12 6 -15 13 -2 6 -8 9
-12 4 -5 -4 -3 -13 3 -19 10 -10 17 -10 32 0 12 7 20 8 20 2 0 -5 5 -10 11
-10 6 0 8 8 4 19 -4 14 2 21 25 31 21 9 30 19 30 36 0 12 5 26 10 29 6 4 8 11
5 16 -4 5 -13 2 -22 -7 -19 -18 -37 -5 -27 20 4 10 11 13 18 8 10 -7 28 -8 66
-3 6 0 10 6 10 12 0 6 -7 9 -15 6 -8 -4 -17 -2 -20 2 -7 12 22 34 34 27 5 -3
7 3 4 14 -3 12 0 20 7 20 9 0 11 -11 7 -35 -4 -23 -2 -34 6 -32 13 2 16 -59 4
-76 -6 -8 -7 -6 -4 5 6 19 -15 42 -28 30 -5 -4 -5 -1 0 7 11 20 -16 9 -29 -12
-14 -22 0 -33 20 -16 15 12 17 12 12 -1 -2 -8 -14 -16 -26 -18 -13 -2 -19 -8
-15 -18 3 -9 -2 -14 -16 -14 -14 0 -19 -5 -15 -15 4 -10 2 -13 -7 -10 -8 3
-19 -5 -26 -20 -8 -17 -8 -25 0 -25 6 0 8 -3 5 -6 -4 -3 -16 -1 -27 5 -17 9
-24 8 -42 -10 -11 -11 -18 -23 -15 -27 4 -3 13 3 21 14 13 17 14 17 15 2 0
-10 -4 -18 -10 -18 -5 0 -10 -10 -10 -22 1 -21 2 -22 14 -5 7 9 19 17 27 17
11 0 11 2 -1 10 -8 5 -10 10 -5 10 6 0 17 -5 25 -10 10 -6 11 -10 3 -10 -7 0
-13 -11 -13 -25 0 -14 -4 -25 -10 -25 -17 0 -11 -16 16 -44 15 -14 22 -26 17
-26 -6 0 -16 7 -23 15 -16 19 -26 19 -34 -1 -3 -8 -2 -12 4 -9 6 3 10 1 10 -4
0 -6 -7 -11 -15 -11 -9 0 -18 -6 -21 -13 -3 -8 -11 -14 -19 -14 -11 0 -12 4
-4 14 9 10 7 13 -10 13 -11 0 -21 5 -21 10 0 6 -4 10 -8 10 -5 0 -9 -7 -9 -15
0 -8 4 -15 8 -15 4 0 10 -7 13 -16 5 -14 1 -15 -29 -10 -38 7 -45 -3 -17 -25
9 -8 15 -13 13 -12 -2 2 -11 -2 -18 -9 -11 -9 -16 -9 -23 1 -8 14 -50 6 -50
-9 0 -10 40 -40 52 -40 5 0 8 7 8 16 0 9 5 12 12 8 7 -5 8 -3 3 6 -5 9 -2 10
13 6 15 -5 22 -2 27 14 6 18 8 18 21 5 9 -8 19 -15 24 -15 4 0 10 -7 14 -15 4
-10 -1 -15 -14 -15 -14 0 -18 5 -13 18 4 13 3 14 -6 6 -7 -6 -13 -21 -14 -33
-1 -11 -5 -21 -10 -21 -5 0 -7 -6 -4 -12 2 -7 -3 -18 -11 -24 -8 -6 -13 -17
-10 -24 3 -10 8 -9 21 4 9 10 17 13 17 7 0 -6 5 -11 10 -11 6 0 10 7 10 15 0
8 -5 15 -12 15 -9 0 -9 3 -1 11 17 17 44 3 36 -18 -6 -15 -4 -16 9 -6 8 7 18
10 21 6 4 -3 7 3 7 15 0 12 -5 22 -12 22 -6 0 -9 2 -6 5 14 14 37 -9 35 -34
-5 -38 -17 -55 -30 -42 -14 14 -40 14 -32 1 4 -6 21 -17 38 -25 18 -9 24 -13
15 -10 -11 3 -18 -1 -18 -10 0 -9 6 -12 15 -9 8 4 15 1 15 -5 0 -6 7 -11 16
-11 13 0 14 -3 5 -14 -15 -18 -62 -8 -68 15 -3 11 -10 19 -17 19 -6 0 -4 5 4
10 25 17 -7 29 -41 16 -17 -6 -25 -12 -19 -14 15 -5 12 -29 -6 -36 -10 -4 -13
-13 -9 -28 4 -15 3 -19 -3 -10 -5 7 -15 12 -22 10 -8 -2 -20 10 -28 25 -10 20
-19 27 -30 22 -9 -3 -13 -3 -9 1 4 5 -3 14 -15 21 -13 7 -17 12 -10 13 14 0
17 20 2 20 -20 0 -24 -32 -5 -42 14 -8 15 -12 4 -19 -10 -6 -11 -9 -1 -9 6 0
12 -7 12 -15 0 -8 -8 -15 -17 -15 -13 0 -14 -3 -5 -12 8 -8 8 -17 1 -30 -8
-14 -14 -16 -29 -8 -16 9 -21 5 -31 -25 -10 -27 -15 -32 -21 -20 -10 16 9 52
31 60 7 3 21 0 29 -7 13 -11 15 -10 9 5 -4 10 -7 25 -7 32 0 7 -10 12 -25 11
-14 0 -25 -4 -25 -8 0 -4 -8 -5 -17 -2 -15 5 -15 4 -3 -4 8 -6 18 -8 22 -6 4
3 8 1 8 -5 0 -5 -7 -14 -16 -19 -9 -5 -16 -13 -16 -18 0 -5 -4 -8 -9 -7 -4 2
-5 -5 -2 -15 3 -9 3 -14 -1 -10 -5 4 -19 -5 -31 -20 -21 -24 -26 -26 -45 -14
-19 12 -22 11 -27 -7 -6 -22 -23 -29 -23 -10 0 5 -5 7 -10 4 -8 -5 -8 -11 0
-20 8 -10 7 -14 -6 -17 -12 -2 -18 -14 -19 -40 -2 -28 0 -35 11 -31 8 3 12 8
10 12 -2 3 13 7 34 9 28 2 39 -2 44 -15 4 -9 1 -20 -6 -25 -10 -6 -8 -8 5 -8
9 0 17 -4 17 -9 0 -5 -8 -12 -17 -15 -10 -3 -6 -4 9 -2 25 3 26 1 16 -18 -15
-28 -23 -35 -14 -12 5 13 2 17 -9 13 -8 -4 -20 2 -27 12 -7 9 -37 28 -65 41
-29 13 -53 27 -53 31 0 5 -7 6 -15 3 -12 -5 -13 -10 -4 -20 9 -11 8 -14 -3
-14 -10 0 -15 9 -14 27 1 21 7 28 31 35 17 4 36 17 43 29 12 19 12 21 -1 16
-10 -4 -17 2 -22 16 -3 13 -8 17 -11 10 -3 -7 0 -22 6 -34 10 -17 9 -20 -2
-17 -7 3 -13 9 -13 14 0 5 -8 20 -18 34 -9 13 -17 20 -17 14 0 -5 4 -14 10
-20 5 -5 6 -15 0 -24 -8 -13 -12 -13 -37 0 -29 16 -83 16 -83 -1 0 -5 12 -9
28 -9 35 0 59 -14 42 -25 -7 -4 -15 -3 -19 3 -8 13 -61 3 -61 -11 0 -6 -3 -7
-7 -3 -11 11 -9 50 2 58 6 5 6 8 -1 8 -6 0 -21 -9 -34 -20 -28 -24 -24 -24
-60 -5 -18 9 -31 11 -35 5 -3 -6 4 -10 15 -10 16 0 20 -5 16 -15 -8 -21 28
-20 60 2 21 13 25 14 23 2 -1 -8 1 -22 5 -31 8 -17 -29 -78 -46 -78 -4 0 -8
-7 -8 -15 0 -8 4 -15 9 -15 5 0 11 -7 15 -15 3 -9 0 -15 -10 -15 -8 0 -12 5
-9 10 3 6 1 10 -4 10 -6 0 -11 -8 -12 -17 0 -11 -5 -5 -11 12 -6 17 -16 33
-22 37 -6 4 2 8 17 8 16 0 26 4 22 10 -3 6 1 10 10 10 9 0 14 4 11 9 -4 5 -1
11 6 13 10 4 22 38 13 38 -17 0 -35 -16 -35 -31 0 -10 -7 -19 -15 -19 -8 0
-15 -4 -15 -10 0 -5 -7 -10 -15 -10 -8 0 -15 -5 -15 -11 0 -13 -42 -8 -52 6
-4 6 -8 -2 -8 -17 0 -15 8 -35 18 -44 16 -17 16 -18 -1 -11 -10 4 -23 7 -28 7
-5 0 -10 8 -10 18 -1 16 -2 16 -6 -1 -5 -18 -33 -24 -33 -6 0 5 5 7 10 4 11
-7 6 27 -11 73 -13 34 -11 41 11 35 11 -3 17 -9 14 -14 -3 -5 -2 -14 2 -20 4
-8 11 -4 18 10 11 20 13 21 32 4 23 -21 44 -27 44 -13 0 5 6 10 14 10 8 0 18
5 22 12 5 8 -2 9 -24 5 -18 -4 -39 -4 -47 0 -14 5 -14 7 0 23 15 16 14 17 -12
13 -20 -3 -24 -2 -14 5 7 5 10 15 6 22 -4 6 1 17 11 25 11 8 14 15 8 15 -5 0
-15 -5 -21 -11 -13 -13 -43 -5 -43 11 0 5 15 11 33 11 23 1 26 3 10 6 -23 4
-31 19 -14 25 5 2 11 10 13 18 2 8 8 19 13 23 6 5 3 7 -7 3 -10 -3 -18 0 -18
6 0 7 -5 6 -15 -2 -10 -9 -15 -9 -15 -1 0 16 -78 11 -84 -6 -3 -8 -10 -11 -16
-8 -6 4 -3 16 7 32 14 21 14 25 3 21 -8 -3 -14 -11 -12 -18 2 -7 -5 -9 -19 -5
-18 6 -19 4 -11 -12 14 -24 49 -53 56 -46 3 4 6 15 6 27 0 20 0 20 16 0 11
-14 14 -15 11 -3 -4 12 1 16 16 14 12 -1 23 -4 25 -5 1 -1 7 -3 14 -4 6 0 13
-6 15 -13 7 -19 -16 -28 -84 -32 -17 -1 -23 -7 -23 -25 0 -14 -5 -28 -12 -32
-7 -5 -9 0 -6 14 7 24 -20 65 -28 45 -4 -9 -11 -10 -25 -3 -13 7 -25 7 -38 0
-11 -5 -26 -10 -33 -9 -7 0 -3 5 10 11 28 14 31 63 3 71 -10 2 -25 1 -32 -4
-16 -10 -47 -2 -66 17 -8 7 -20 11 -27 8 -14 -5 -31 25 -20 35 4 3 9 0 11 -6
4 -10 8 -9 19 1 20 20 18 24 -9 19 -25 -5 -54 28 -62 69 -6 29 -14 35 -25 18
-6 -8 -10 -10 -10 -5 0 13 20 43 20 30 0 -5 5 -3 11 5 9 13 10 13 8 0 -3 -34
1 -40 28 -36 14 3 29 9 32 13 9 13 56 9 54 -4 -1 -6 4 -14 12 -17 19 -7 19 8
0 24 -19 16 -19 30 0 30 8 0 15 5 15 11 0 5 -4 8 -10 4 -16 -10 -45 28 -42 56
3 22 7 26 25 22 18 -4 19 -3 6 6 -20 13 -14 58 10 64 9 3 3 5 -13 6 -20 1 -27
5 -23 16 4 8 2 17 -4 20 -5 4 -12 -2 -16 -11 -4 -10 -2 -19 5 -22 20 -6 13
-22 -9 -22 -18 0 -20 4 -15 25 5 18 2 25 -8 25 -8 0 -16 5 -18 12 -6 17 -28 0
-28 -23 0 -22 11 -24 28 -7 9 9 12 9 12 0 0 -7 -4 -12 -9 -12 -5 0 -7 -8 -5
-18 4 -12 -4 -20 -24 -28 -24 -9 -29 -9 -28 3 0 9 -7 20 -17 27 -14 9 -20 8
-27 -4 -7 -11 -3 -18 12 -26 11 -6 16 -14 11 -17 -6 -4 -21 5 -33 18 -13 14
-20 25 -16 25 5 0 3 6 -3 13 -9 11 -3 16 29 26 21 6 42 16 45 21 8 13 -25 26
-34 14 -3 -5 -14 -15 -24 -23 -15 -12 -17 -12 -11 2 3 9 -4 28 -15 44 -16 22
-19 37 -15 66 4 20 11 37 15 37 5 0 9 7 9 15 0 8 -7 15 -16 15 -8 0 -13 4 -9
10 10 15 35 -1 36 -24 1 -15 3 -16 6 -4 2 9 10 19 17 21 10 4 12 -1 9 -14 -4
-13 0 -19 10 -19 8 0 18 -6 21 -12 3 -7 3 0 -1 15 -5 25 -3 28 13 25 11 -2 18
-10 16 -17 -1 -7 2 -10 8 -6 9 6 14 -7 11 -27 0 -5 6 -8 15 -8 14 0 14 3 4 15
-10 13 -10 19 4 33 9 10 16 27 15 38 -1 14 -3 13 -8 -6 -11 -38 -44 -33 -52 8
-4 18 -3 35 2 38 5 3 9 10 9 16 0 7 -4 7 -13 0 -17 -14 -31 -3 -35 28 -1 14
-7 27 -12 28 -6 2 -10 8 -10 14 0 19 25 1 30 -23 4 -17 13 -24 30 -24 21 0 25
5 27 34 3 33 2 34 -12 15 -15 -18 -15 -18 -8 0 4 13 3 17 -5 12 -12 -7 -38 42
-27 52 3 3 5 0 5 -6 0 -7 10 -12 23 -12 21 1 21 1 -6 18 -15 9 -27 20 -27 24
0 12 14 10 29 -4 10 -11 11 -10 6 3 -4 10 -2 20 4 24 16 9 14 25 -2 19 -8 -3
-14 2 -14 10 0 8 5 13 11 10 6 -3 2 2 -8 10 -16 13 -22 13 -28 3 -4 -7 -8 -8
-8 -1 0 18 12 24 31 13 14 -7 19 -6 19 2 0 8 5 8 16 -2 12 -10 20 -10 35 -1
11 7 19 8 19 2 0 -5 5 -10 10 -10 15 0 12 16 -6 34 -8 9 -12 16 -8 16 3 0 1 7
-6 15 -11 13 -7 15 24 15 20 0 36 -5 36 -11 0 -5 -5 -7 -10 -4 -7 4 -9 -11 -8
-42 3 -40 0 -48 -14 -45 -9 1 -19 -2 -23 -8 -4 -6 -12 -5 -21 5 -18 17 -34 20
-34 5 0 -5 5 -10 11 -10 5 0 7 -4 4 -10 -3 -5 2 -11 12 -12 10 0 24 -2 31 -2
8 -1 18 -9 23 -18 6 -11 16 -15 26 -11 13 5 15 2 11 -15 -4 -12 -3 -20 2 -17
4 3 10 16 13 31 4 23 2 25 -19 21 -13 -2 -21 -1 -19 4 3 4 -1 10 -7 12 -8 4
-4 8 9 12 13 4 20 11 17 16 -3 5 1 9 8 9 10 0 10 2 -1 9 -10 7 -11 13 -1 31 6
12 9 28 6 35 -2 7 4 15 13 18 14 3 17 0 14 -14 -4 -14 0 -19 15 -19 22 0 37
26 21 35 -5 4 -7 11 -3 16 3 5 2 9 -3 8 -19 -3 -33 2 -33 12 0 7 10 9 27 4 24
-6 25 -5 12 12 -7 10 -26 30 -41 46 -16 15 -28 34 -28 42 0 8 -6 15 -12 16 -7
0 -4 4 6 8 26 10 68 1 63 -13 -7 -18 18 -72 27 -58 4 7 2 12 -3 12 -6 0 -11 8
-11 17 0 13 3 14 12 5 15 -15 32 -16 23 -1 -4 6 0 9 11 7 11 -2 18 2 16 10 -2
14 0 14 23 6 14 -6 12 -10 -11 -24 -25 -17 -25 -19 -8 -28 14 -7 26 -6 44 5
14 8 17 12 8 9 -21 -6 -30 5 -14 19 16 14 42 12 38 -4 -1 -7 3 -11 10 -8 7 2
12 10 10 16 -4 20 8 12 18 -11 6 -16 9 -18 9 -7 1 11 10 17 27 17 14 0 31 5
37 11 9 9 8 11 -5 6 -11 -4 -18 -2 -18 4 0 6 -5 11 -11 11 -6 0 -9 -7 -6 -14
4 -10 1 -13 -8 -9 -8 3 -12 10 -8 16 3 5 2 7 -3 4 -6 -3 -16 -2 -24 3 -12 7
-11 10 4 16 10 4 13 10 8 13 -5 3 -12 17 -16 31 l-7 25 21 -27 c23 -30 46 -38
36 -13 -3 9 1 18 10 22 13 5 13 7 2 15 -10 7 -8 12 10 25 28 19 28 29 1 36
-16 4 -20 10 -14 24 4 10 7 26 7 36 0 9 4 17 9 17 6 0 7 -4 4 -10 -3 -5 -2
-10 3 -10 5 0 12 -8 14 -18 4 -14 13 -18 37 -16 17 1 31 -3 31 -8 0 -6 8 -7
18 -3 9 4 23 9 30 12 6 3 12 0 12 -6 0 -6 -7 -11 -15 -11 -8 0 -15 -5 -15 -10
0 -6 -11 -8 -25 -6 -14 3 -23 1 -20 -5 8 -13 39 -11 53 3 8 8 15 8 26 -1 12
-10 19 -10 36 2 l21 14 -21 6 c-11 3 -20 1 -20 -4 0 -5 -4 -9 -9 -9 -5 0 -7 9
-4 20 6 24 7 24 38 4 13 -8 21 -22 19 -29 -8 -21 36 -14 47 7 5 10 16 18 24
18 10 0 15 11 15 33 0 17 4 27 8 21 4 -6 17 -13 29 -16 16 -4 23 0 27 16 4 15
13 21 35 21 24 1 28 -2 19 -12z m247 7 c-3 -5 -12 -10 -18 -10 -7 0 -6 4 3 10
19 12 23 12 15 0z m-1050 -11 c17 -8 16 -9 -7 -6 -23 3 -28 0 -28 -16 0 -16
-3 -17 -15 -7 -20 16 -19 27 3 33 24 7 25 7 47 -4z m503 4 c-10 -2 -18 -13
-18 -23 0 -10 -7 -20 -15 -24 -8 -3 -15 -1 -15 5 0 6 -8 5 -22 -2 -18 -9 -21
-9 -11 1 6 7 9 19 6 28 -4 10 -2 13 5 8 6 -3 13 -3 15 1 3 5 20 9 39 9 18 1
25 -1 16 -3z m107 -3 c3 -5 1 -10 -4 -10 -6 0 -11 5 -11 10 0 6 2 10 4 10 3 0
8 -4 11 -10z m585 0 c0 -6 -8 -10 -17 -8 -11 2 -17 -2 -15 -10 1 -8 -2 -11 -7
-7 -16 9 -1 35 20 35 10 0 19 -5 19 -10z m123 -4 c4 -10 0 -12 -15 -8 -15 4
-17 7 -6 13 17 11 15 11 21 -5z m69 -8 c-7 -7 -12 -8 -12 -2 0 6 3 14 7 17 3
4 9 5 12 2 2 -3 -1 -11 -7 -17z m113 12 c-4 -6 -1 -19 7 -28 12 -15 11 -16 -4
-3 -20 15 -24 41 -7 41 5 0 7 -5 4 -10z m-845 -10 c0 -5 -7 -10 -15 -10 -8 0
-15 5 -15 10 0 6 7 10 15 10 8 0 15 -4 15 -10z m370 -21 c0 -5 -7 -9 -15 -9
-9 0 -12 6 -9 15 6 15 24 11 24 -6z m-1260 7 c0 -2 -7 -6 -15 -10 -8 -3 -15
-1 -15 4 0 6 7 10 15 10 8 0 15 -2 15 -4z m90 -11 c0 -8 -4 -15 -10 -15 -5 0
-7 7 -4 15 4 8 8 15 10 15 2 0 4 -7 4 -15z m660 11 c0 -3 -4 -8 -10 -11 -5 -3
-10 -1 -10 4 0 6 5 11 10 11 6 0 10 -2 10 -4z m100 -3 c0 -1 -9 -7 -19 -12
-14 -8 -20 -7 -24 2 -3 7 5 12 19 12 13 0 24 -1 24 -2z m616 -10 c18 -24 17
-31 -3 -29 -21 1 -30 -33 -11 -45 10 -7 9 -9 -5 -9 -14 0 -17 -6 -13 -27 2
-16 5 -32 5 -37 1 -5 8 -3 16 4 10 8 19 9 28 3 14 -11 27 -11 45 0 13 9 16 -2
6 -27 -8 -21 -21 -20 -28 2 -3 9 -4 5 -2 -10 2 -18 -1 -25 -10 -21 -7 2 -11
13 -9 24 3 16 0 18 -20 13 -18 -4 -27 -1 -31 10 -3 9 -9 14 -13 12 -4 -3 -13
-1 -21 5 -12 7 -12 9 3 9 10 0 15 5 12 10 -4 6 -1 18 6 26 10 12 10 17 1 23
-9 5 -7 12 7 25 11 10 17 25 14 37 -7 24 5 25 23 2z m58 2 c-4 -8 -1 -15 4
-15 6 0 9 -11 6 -25 -2 -14 0 -25 6 -25 5 0 10 -4 10 -10 0 -5 -8 -10 -18 -10
-15 0 -18 7 -16 35 2 25 -1 35 -11 35 -18 0 -20 16 -2 23 22 9 27 7 21 -8z
m-1179 -7 c4 -3 2 -9 -3 -12 -5 -3 -15 1 -21 8 -10 11 -9 14 3 12 9 -1 18 -5
21 -8z m247 -2 c7 4 8 2 4 -5 -9 -13 -26 -5 -25 12 0 9 2 8 6 -1 2 -6 10 -9
15 -6z m732 -18 c-23 -27 -36 -38 -48 -38 -8 0 54 60 63 60 2 0 -4 -10 -15
-22z m-1264 2 c0 -5 -4 -10 -10 -10 -5 0 -10 5 -10 10 0 6 5 10 10 10 6 0 10
-4 10 -10z m170 0 c0 -5 -4 -10 -10 -10 -5 0 -10 -7 -10 -15 0 -8 6 -15 14
-15 9 0 14 -14 14 -45 1 -33 -3 -45 -13 -45 -9 0 -12 -6 -9 -15 4 -9 0 -15
-10 -15 -18 0 -21 15 -5 25 6 4 8 13 5 21 -3 8 1 14 9 14 17 0 20 16 5 25 -5
3 -10 1 -10 -6 0 -7 -3 -9 -7 -6 -5 5 -8 67 -4 92 2 10 31 5 31 -5z m177 -12
c2 -19 0 -20 -8 -8 -8 11 -12 12 -15 3 -3 -7 -12 -9 -21 -6 -11 4 -14 2 -9 -5
4 -7 2 -12 -3 -12 -6 0 -11 5 -11 10 0 6 -5 10 -11 10 -6 0 -9 -6 -6 -14 3 -8
-1 -13 -11 -12 -9 0 -16 -5 -14 -11 1 -7 -7 -13 -18 -13 -11 0 -20 5 -20 10 0
6 6 10 13 10 8 0 22 9 32 20 10 11 30 20 44 20 14 0 33 5 41 10 8 5 15 10 15
10 1 0 2 -10 2 -22z m703 12 c0 -5 -11 -10 -25 -10 -19 0 -25 -6 -26 -22 l-2
-23 -4 23 c-3 16 -10 22 -19 18 -9 -3 -12 -2 -9 5 4 6 13 8 21 5 7 -3 16 -1
19 4 8 13 45 13 45 0z m287 -12 c1 -10 -2 -18 -8 -18 -5 0 -9 2 -9 4 0 2 -2
11 -5 19 -3 7 0 14 8 14 7 0 14 -9 14 -19z m198 12 c3 -5 2 -10 -4 -10 -5 0
-13 5 -16 10 -3 6 -2 10 4 10 5 0 13 -4 16 -10z m91 -3 c20 8 17 -4 -4 -16
-15 -8 -18 -5 -19 12 0 12 1 17 4 10 2 -7 11 -9 19 -6z m-1551 -17 c3 -5 1
-10 -4 -10 -6 0 -11 5 -11 10 0 6 2 10 4 10 3 0 8 -4 11 -10z m469 -6 c3 -8 2
-13 -3 -10 -5 3 -12 -1 -15 -10 -3 -8 -10 -12 -16 -9 -5 3 -10 1 -10 -4 0 -6
-9 -11 -20 -11 -13 0 -18 -5 -14 -15 4 -8 1 -15 -5 -15 -21 0 -11 28 17 45 15
10 31 24 35 32 11 17 23 17 31 -3z m656 10 c0 -7 -27 -34 -34 -34 -4 0 -1 9 6
20 12 19 28 27 28 14z m555 -4 c3 -5 2 -10 -4 -10 -5 0 -13 5 -16 10 -3 6 -2
10 4 10 5 0 13 -4 16 -10z m-722 -19 c-2 -6 3 -11 11 -11 8 0 16 -6 19 -12 3
-9 10 -8 26 6 19 17 21 17 21 3 0 -10 -6 -17 -14 -17 -13 0 -28 -22 -30 -44
-1 -5 -14 -11 -30 -13 l-30 -4 25 20 24 21 -27 -10 c-18 -6 -29 -6 -34 1 -3 6
3 13 15 16 11 3 18 9 15 14 -12 20 -13 50 -1 46 7 -3 11 -10 10 -16z m397 9
c0 -5 -5 -10 -11 -10 -5 0 -7 5 -4 10 3 6 8 10 11 10 2 0 4 -4 4 -10z m255 0
c-3 -5 -14 -10 -23 -10 -15 0 -15 2 -2 10 20 13 33 13 25 0z m-135 -7 c-8 -3
-22 -11 -30 -17 -13 -10 -13 -9 -1 7 7 9 21 17 30 16 13 0 14 -1 1 -6z m155
-32 c2 -11 0 -21 -4 -21 -5 0 -8 11 -8 25 0 30 6 28 12 -4z m-1390 9 c3 -5 1
-10 -4 -10 -6 0 -11 5 -11 10 0 6 2 10 4 10 3 0 8 -4 11 -10z m685 -5 c0 -2
-7 -5 -15 -9 -9 -3 -15 0 -15 9 0 9 6 12 15 9 8 -4 15 -7 15 -9z m190 -5 c-8
-6 -22 -10 -30 -10 -8 0 -4 6 10 13 27 15 44 12 20 -3z m-1273 -12 c-3 -8 -6
-5 -6 6 -1 11 2 17 5 13 3 -3 4 -12 1 -19z m183 7 c7 -9 8 -15 2 -15 -5 0 -12
7 -16 15 -3 8 -4 15 -2 15 2 0 9 -7 16 -15z m243 -5 c-3 -11 -10 -20 -15 -20
-5 0 -6 -4 -3 -10 3 -5 1 -10 -4 -10 -6 0 -11 4 -11 9 0 5 -13 12 -30 16 -16
4 -30 10 -30 14 0 13 34 8 49 -6 11 -12 16 -11 28 7 18 25 23 25 16 0z m1460
6 c3 -8 0 -17 -8 -20 -10 -3 -12 0 -8 12 6 15 5 16 -13 2 -18 -14 -18 -14 -5
3 16 21 27 22 34 3z m-1805 -21 c-3 -3 -9 2 -12 12 -6 14 -5 15 5 6 7 -7 10
-15 7 -18z m532 4 c0 -5 -4 -9 -10 -9 -5 0 -10 7 -10 16 0 8 5 12 10 9 6 -3
10 -10 10 -16z m800 17 c0 -11 -19 -15 -25 -6 -3 5 1 10 9 10 9 0 16 -2 16 -4z
m-1609 -29 c-10 -9 -11 -8 -5 6 3 10 9 15 12 12 3 -3 0 -11 -7 -18z m513 14
c4 -5 -1 -8 -9 -7 -21 3 -31 16 -12 16 9 0 18 -4 21 -9z m1176 -1 c0 -5 -4
-10 -10 -10 -5 0 -10 5 -10 10 0 6 5 10 10 10 6 0 10 -4 10 -10z m65 0 c3 -5
1 -10 -4 -10 -6 0 -11 5 -11 10 0 6 2 10 4 10 3 0 8 -4 11 -10z m-1585 -36 c0
-2 -9 0 -20 6 -11 6 -20 13 -20 16 0 2 9 0 20 -6 11 -6 20 -13 20 -16z m1648
19 c-19 -5 -25 -23 -7 -23 6 0 3 -7 -6 -16 -9 -10 -14 -25 -12 -35 4 -15 2
-16 -18 -7 -15 6 -21 16 -18 25 4 11 8 12 13 3 6 -9 9 -9 15 0 4 6 4 14 1 17
-10 10 14 43 32 42 16 -1 16 -2 0 -6z m67 -10 c-4 -38 -17 -54 -31 -42 -8 6
-14 18 -14 26 0 12 3 13 14 4 11 -9 15 -7 19 9 6 25 14 26 12 3z m42 -5 c-3
-8 -6 -5 -6 6 -1 11 2 17 5 13 3 -3 4 -12 1 -19z m68 11 c11 -16 1 -19 -13 -3
-7 8 -8 14 -3 14 5 0 13 -5 16 -11z m-1890 -9 c3 -5 1 -10 -4 -10 -6 0 -11 5
-11 10 0 6 2 10 4 10 3 0 8 -4 11 -10z m1945 6 c0 -3 -4 -8 -10 -11 -5 -3 -10
-1 -10 4 0 6 5 11 10 11 6 0 10 -2 10 -4z m94 -12 c3 -8 2 -12 -4 -9 -6 3 -10
10 -10 16 0 14 7 11 14 -7z m-2103 -14 l24 -19 -29 -1 c-20 0 -27 4 -23 14 3
8 1 17 -6 20 -8 3 -9 5 -1 5 7 1 22 -8 35 -19z m489 11 c0 -5 -7 -12 -16 -15
-14 -5 -15 -4 -4 9 14 17 20 19 20 6z m-193 -25 c-9 -7 -17 -18 -17 -25 0 -6
-4 -11 -10 -11 -11 0 -13 11 -4 34 3 9 10 14 14 11 5 -3 12 0 15 6 4 5 10 7
13 4 4 -4 -1 -12 -11 -19z m302 -20 c-9 -8 -10 -7 -5 7 3 10 7 24 7 30 1 7 3
4 6 -7 3 -10 -1 -23 -8 -30z m-535 12 c-8 -29 -11 -31 -23 -24 -6 4 -4 14 7
26 23 24 25 24 16 -2z m106 12 c0 -5 -4 -10 -10 -10 -5 0 -10 5 -10 10 0 6 5
10 10 10 6 0 10 -4 10 -10z m-37 -20 c20 -24 6 -27 -17 -4 -18 17 -20 24 -8
24 4 0 15 -9 25 -20z m195 0 c-7 -11 -19 -20 -27 -20 -8 0 -4 8 10 20 30 25
32 25 17 0z m1636 4 c3 -8 2 -12 -4 -9 -6 3 -10 10 -10 16 0 14 7 11 14 -7z
m-172 -12 c3 -10 0 -19 -6 -19 -7 0 -13 9 -13 19 -1 10 2 18 6 18 5 0 11 -8
13 -18z m108 7 c0 -6 6 -9 14 -6 18 7 27 -15 14 -34 -8 -11 -9 -10 -4 4 6 19
-14 23 -31 6 -7 -7 -10 -3 -10 15 0 14 3 26 8 26 5 0 9 -5 9 -11z m215 1 c3
-5 -1 -10 -10 -10 -9 0 -13 5 -10 10 3 6 8 10 10 10 2 0 7 -4 10 -10z m-1915
-10 c0 -5 -5 -10 -11 -10 -5 0 -7 5 -4 10 3 6 8 10 11 10 2 0 4 -4 4 -10z m45
0 c3 -5 1 -10 -4 -10 -6 0 -11 5 -11 10 0 6 2 10 4 10 3 0 8 -4 11 -10z m114
-21 c-19 -12 -24 -2 -8 17 9 11 14 13 17 4 3 -7 -2 -16 -9 -21z m121 17 c0 -3
-4 -8 -10 -11 -5 -3 -10 -1 -10 4 0 6 5 11 10 11 6 0 10 -2 10 -4z m1361 -10
c5 3 9 0 9 -6 0 -15 -23 -7 -26 8 -1 7 0 8 3 2 2 -5 9 -8 14 -4z m-344 -10 c0
-8 -6 -12 -14 -9 -7 3 -13 9 -13 14 0 5 6 9 13 9 8 0 14 -6 14 -14z m546 -3
c-3 -9 -13 -11 -27 -7 -38 11 -41 24 -4 22 26 -1 35 -5 31 -15z m-1613 -3 c0
-5 -5 -10 -11 -10 -5 0 -7 5 -4 10 3 6 8 10 11 10 2 0 4 -4 4 -10z m1230 0
c-13 -8 -12 -10 3 -10 9 0 17 -5 17 -11 0 -7 -9 -9 -22 -5 -13 3 -30 6 -38 6
-9 1 -5 6 10 15 28 16 54 20 30 5z m-1190 -35 c0 -12 -7 -25 -15 -29 -11 -4
-14 2 -13 22 1 15 3 30 5 35 8 14 23 -4 23 -28z m1365 17 c-3 -3 -11 0 -18 7
-9 10 -8 11 6 5 10 -3 15 -9 12 -12z m-1755 -2 c0 -5 -2 -10 -4 -10 -3 0 -8 5
-11 10 -3 6 -1 10 4 10 6 0 11 -4 11 -10z m160 0 c12 -7 12 -12 2 -22 -9 -9
-12 -9 -12 4 0 9 -6 19 -12 21 -7 3 -8 6 -3 6 6 0 17 -4 25 -9z m33 -10 c3
-11 1 -20 -4 -20 -5 0 -9 9 -9 20 0 11 2 20 4 20 2 0 6 -9 9 -20z m67 12 c0
-4 -12 -8 -27 -9 -24 -1 -25 -1 -8 7 26 11 35 12 35 2z m1136 -8 c-4 -9 -1
-23 5 -30 6 -8 7 -14 2 -14 -12 0 -34 46 -26 54 13 12 25 5 19 -10z m244 6 c0
-5 -4 -10 -10 -10 -5 0 -10 5 -10 10 0 6 5 10 10 10 6 0 10 -4 10 -10z m-1796
-21 c-3 -5 -10 -7 -15 -3 -5 3 -7 10 -3 15 3 5 10 7 15 3 5 -3 7 -10 3 -15z
m486 -3 c0 -6 9 -17 20 -24 25 -15 65 1 56 24 -4 11 -2 12 13 5 10 -6 21 -7
25 -4 3 3 6 2 6 -4 0 -14 -25 -34 -33 -26 -4 3 -7 1 -7 -5 0 -7 5 -12 12 -12
30 0 -6 -13 -44 -16 -24 -2 -48 -10 -54 -19 -10 -14 -12 -13 -17 5 -3 11 -1
18 4 14 10 -6 12 9 2 19 -3 4 -14 0 -23 -8 -16 -14 -19 -14 -34 0 -18 19 -19
24 -7 44 6 9 11 10 15 2 4 -6 2 -11 -3 -11 -6 0 -11 -4 -11 -9 0 -4 12 -6 26
-3 20 4 25 9 22 27 -4 18 -1 21 14 17 10 -2 18 -9 18 -16z m1696 -3 c-10 -10
-19 5 -10 18 6 11 8 11 12 0 2 -7 1 -15 -2 -18z m-2051 7 c3 -5 1 -10 -4 -10
-6 0 -11 5 -11 10 0 6 2 10 4 10 3 0 8 -4 11 -10z m115 -2 c0 -5 -4 -8 -10 -8
-5 0 -10 -9 -10 -20 0 -11 5 -20 11 -20 5 0 7 -5 4 -10 -9 -14 -30 9 -38 42
-6 23 -4 26 18 24 14 0 25 -4 25 -8z m1470 8 c0 -3 -4 -8 -10 -11 -5 -3 -10
-1 -10 4 0 6 5 11 10 11 6 0 10 -2 10 -4z m131 -38 c6 -12 6 -18 -1 -18 -5 0
-10 7 -10 15 0 19 -19 19 -44 0 -26 -20 -53 -21 -37 -2 6 8 7 17 3 21 -4 4 5
5 20 1 21 -5 29 -3 34 10 7 18 10 15 35 -27z m47 30 c-2 -6 -10 -14 -16 -16
-7 -2 -10 2 -6 12 7 18 28 22 22 4z m46 -3 c3 -8 1 -15 -4 -15 -6 0 -10 7 -10
15 0 8 2 15 4 15 2 0 6 -7 10 -15z m-1979 -15 c3 -5 1 -10 -4 -10 -6 0 -11 5
-11 10 0 6 2 10 4 10 3 0 8 -4 11 -10z m1782 4 c-3 -3 -12 -4 -19 -1 -8 3 -5
6 6 6 11 1 17 -2 13 -5z m310 -9 c0 -8 -4 -12 -9 -9 -5 3 -6 10 -3 15 9 13 12
11 12 -6z m183 5 c0 -5 -4 -10 -10 -10 -5 0 -10 5 -10 10 0 6 5 10 10 10 6 0
10 -4 10 -10z m-97 -15 c-3 -9 -8 -14 -10 -11 -3 3 -2 9 2 15 9 16 15 13 8 -4z
m-1949 -16 c-8 -14 -24 -10 -24 6 0 9 6 12 15 9 8 -4 12 -10 9 -15z m96 11 c0
-5 -4 -10 -10 -10 -5 0 -10 5 -10 10 0 6 5 10 10 10 6 0 10 -4 10 -10z m1646
-8 c-4 -12 3 -23 22 -34 15 -10 21 -18 14 -18 -7 0 -20 7 -28 15 -8 8 -22 11
-32 8 -16 -6 -16 -6 1 11 9 9 17 22 17 27 0 5 3 9 6 9 3 0 3 -8 0 -18z m67
-32 c-2 -3 -10 3 -17 12 -7 10 -16 15 -20 11 -4 -4 -4 0 -1 10 6 15 9 14 25
-6 10 -12 16 -24 13 -27z m-178 29 c-4 -6 -10 -8 -13 -5 -3 3 -11 1 -19 -5 -8
-8 -13 -8 -13 -1 0 11 16 20 38 21 7 1 10 -4 7 -10z m-1735 -19 c-8 -5 -17 -7
-19 -4 -3 3 1 9 9 14 8 5 17 7 19 4 3 -3 -1 -9 -9 -14z m307 14 c-3 -3 -12 -4
-19 -1 -8 3 -5 6 6 6 11 1 17 -2 13 -5z m1446 -24 c-4 -14 1 -21 20 -25 14 -4
30 -4 36 -1 5 4 12 2 15 -3 3 -5 15 -7 26 -4 15 4 19 2 14 -10 -6 -16 -20 -17
-41 -4 -8 5 -13 4 -13 -2 0 -6 -6 -11 -14 -11 -8 0 -16 -3 -19 -7 -2 -5 -2 -2
-1 5 2 6 -4 12 -14 12 -14 0 -14 2 -3 9 11 7 9 10 -8 16 -27 8 -41 -2 -21 -15
8 -6 10 -10 4 -10 -12 0 -40 28 -33 34 9 7 54 36 55 36 1 0 0 -9 -3 -20z m217
16 c0 -3 -4 -8 -10 -11 -5 -3 -10 -1 -10 4 0 6 5 11 10 11 6 0 10 -2 10 -4z
m173 -5 c19 9 18 7 -3 -10 -27 -22 -42 -19 -33 6 4 11 8 13 11 5 3 -9 9 -9 25
-1z m-2108 -10 c-3 -5 3 -16 14 -23 14 -10 17 -18 10 -28 -7 -13 -9 -12 -9 3
0 9 -5 17 -11 17 -7 0 -18 -8 -26 -17 -14 -17 -14 -17 -9 0 3 10 0 17 -7 17
-7 0 -1 9 13 20 28 22 34 24 25 11z m85 -22 c0 -10 5 -19 10 -19 6 0 10 -4 10
-9 0 -17 -38 1 -43 21 -3 11 -10 17 -16 13 -6 -3 -11 -2 -11 4 0 10 30 20 43
14 4 -2 7 -13 7 -24z m154 7 c-3 -9 -12 -16 -19 -16 -7 0 -16 -7 -19 -16 -3
-8 -10 -13 -16 -9 -6 4 -5 15 2 30 6 13 14 23 17 20 4 -2 13 0 21 5 18 11 22
7 14 -14z m-394 -7 c0 -5 -7 -9 -15 -9 -15 0 -20 12 -9 23 8 8 24 -1 24 -14z
m488 3 c6 -18 -15 -14 -22 4 -4 10 -1 14 6 12 6 -2 14 -10 16 -16z m-28 -8 c0
-2 -7 -4 -15 -4 -8 0 -15 4 -15 10 0 5 7 7 15 4 8 -4 15 -8 15 -10z m1640 8
c0 -13 -12 -22 -22 -16 -10 6 -1 24 13 24 5 0 9 -4 9 -8z m76 -30 c-4 -3 -11
0 -16 8 -15 24 -11 33 6 15 9 -9 13 -19 10 -23z m-1653 8 c-3 -11 -12 -20 -19
-20 -18 0 -18 5 2 24 20 21 23 20 17 -4z m-463 6 c0 -2 -7 -6 -15 -10 -8 -3
-15 -1 -15 4 0 6 7 10 15 10 8 0 15 -2 15 -4z m-40 -36 c0 -5 -4 -10 -10 -10
-5 0 -7 -7 -3 -16 5 -13 7 -13 14 -2 7 10 9 9 9 -4 0 -23 -26 -23 -38 -1 -6
11 -6 21 2 29 13 16 26 18 26 4z m95 0 c3 -5 -1 -10 -9 -10 -8 0 -18 5 -21 10
-3 6 1 10 9 10 8 0 18 -4 21 -10z m168 -20 c3 -11 1 -18 -4 -14 -5 3 -9 12 -9
20 0 20 7 17 13 -6z m1907 16 c0 -3 -4 -8 -10 -11 -5 -3 -10 -1 -10 4 0 6 5
11 10 11 6 0 10 -2 10 -4z m65 -15 c-3 -6 -11 -11 -16 -11 -5 0 -4 6 3 14 14
16 24 13 13 -3z m-97 -13 c-2 -17 2 -23 15 -22 10 1 17 -5 17 -17 0 -10 5 -19
11 -19 5 0 8 4 5 8 -2 4 4 13 15 20 29 18 23 5 -15 -33 -31 -33 -76 -47 -76
-25 0 6 6 10 14 10 8 0 16 6 19 13 6 18 -12 49 -25 41 -6 -4 -9 -3 -6 2 3 5 8
17 11 27 9 24 19 21 15 -5z m-1925 -8 c3 -11 0 -23 -5 -27 -7 -3 -8 -1 -4 5 4
7 1 12 -8 12 -17 0 -21 12 -9 23 11 12 21 8 26 -13z m138 -11 c-21 -20 -41
-25 -41 -10 0 5 9 11 21 14 12 3 18 10 14 16 -4 7 0 8 10 5 14 -6 14 -9 -4
-25z m1639 -4 c0 -19 -4 -35 -10 -35 -5 0 -9 10 -7 23 1 13 -3 21 -10 20 -20
-4 -15 15 5 20 9 3 18 5 20 6 1 0 2 -15 2 -34z m90 23 c0 -12 -43 -38 -61 -38
-3 0 -4 11 -1 25 3 20 10 25 33 25 17 0 29 -5 29 -12z m30 2 c0 -5 -4 -10 -10
-10 -5 0 -10 5 -10 10 0 6 5 10 10 10 6 0 10 -4 10 -10z m-2193 -6 c-3 -3 -12
-4 -19 -1 -8 3 -5 6 6 6 11 1 17 -2 13 -5z m2023 2 c0 -2 -7 -6 -15 -10 -8 -3
-15 -1 -15 4 0 6 7 10 15 10 8 0 15 -2 15 -4z m-54 -14 c-3 -5 4 -16 15 -25
11 -10 17 -22 14 -27 -3 -5 1 -7 9 -4 9 3 14 11 13 16 -1 6 3 12 8 14 6 2 11
-5 11 -16 0 -21 -19 -31 -48 -27 -22 4 -36 17 -18 17 9 0 8 5 -5 14 -16 12
-16 46 0 46 4 0 4 -4 1 -8z m-1776 -23 c0 -6 -4 -7 -10 -4 -5 3 -10 11 -10 16
0 6 5 7 10 4 6 -3 10 -11 10 -16z m160 5 c0 -2 -7 -4 -15 -4 -8 0 -15 4 -15
10 0 5 7 7 15 4 8 -4 15 -8 15 -10z m126 -6 c4 -6 3 -8 -4 -4 -6 3 -13 2 -17
-4 -4 -6 -11 -7 -18 -3 -9 6 -3 10 30 22 1 1 5 -4 9 -11z m1854 -2 c0 -8 -6
-16 -14 -19 -10 -4 -12 0 -9 14 6 22 23 26 23 5z m-2290 -6 c0 -5 -4 -10 -10
-10 -5 0 -10 5 -10 10 0 6 5 10 10 10 6 0 10 -4 10 -10z m91 -13 c-10 -9 -11
-8 -5 6 3 10 9 15 12 12 3 -3 0 -11 -7 -18z m1809 19 c0 -3 -4 -8 -10 -11 -5
-3 -10 -1 -10 4 0 6 5 11 10 11 6 0 10 -2 10 -4z m230 -6 c0 -5 -11 -12 -25
-16 -14 -3 -23 -9 -20 -13 2 -4 -2 -8 -9 -8 -22 0 -8 22 22 34 15 6 28 11 30
12 1 1 2 -3 2 -9z m-1755 -10 c3 -5 1 -10 -4 -10 -6 0 -11 5 -11 10 0 6 2 10
4 10 3 0 8 -4 11 -10z m1685 1 c0 -5 -7 -14 -15 -21 -8 -7 -15 -20 -15 -29 0
-13 2 -13 9 -2 5 7 11 9 14 4 3 -5 -3 -14 -13 -21 -16 -10 -21 -9 -29 7 -8 15
-6 22 14 37 13 10 22 21 19 26 -3 4 0 8 5 8 6 0 11 -4 11 -9z m274 -6 c3 -8 1
-15 -4 -15 -6 0 -10 7 -10 15 0 8 2 15 4 15 2 0 6 -7 10 -15z m-2274 -20 c0
-12 -19 -12 -23 0 -4 9 -1 12 9 8 7 -3 14 -7 14 -8z m380 5 c0 -5 -2 -10 -4
-10 -3 0 -8 5 -11 10 -3 6 -1 10 4 10 6 0 11 -4 11 -10z m1490 -24 c0 -2 -10
-14 -23 -27 -26 -28 -54 -36 -54 -15 0 8 7 11 19 8 13 -3 17 0 12 11 -3 9 -15
14 -30 12 -20 -2 -22 0 -13 12 7 7 20 11 30 8 11 -4 19 -2 19 5 0 8 6 8 20 0
11 -6 20 -12 20 -14z m310 16 c0 -4 -9 -13 -20 -20 -12 -7 -18 -17 -15 -21 2
-5 -2 -11 -10 -15 -10 -4 -15 1 -15 14 0 11 7 20 15 20 9 0 18 7 21 15 6 15
24 21 24 7z m-2020 -17 c-6 -8 -9 -19 -5 -24 3 -7 0 -8 -9 -5 -20 8 -20 9 0
28 19 20 31 21 14 1z m145 5 c3 -6 -1 -7 -9 -4 -9 3 -16 1 -16 -6 0 -6 -5 -8
-11 -4 -8 4 -7 9 2 15 18 11 26 11 34 -1z m-383 -22 c-3 -12 -10 -17 -19 -14
-8 3 -20 6 -26 6 -6 0 -3 6 7 13 27 20 44 17 38 -5z m268 7 c0 -8 -4 -15 -10
-15 -5 0 -7 7 -4 15 4 8 8 15 10 15 2 0 4 -7 4 -15z m54 8 c-5 -5 -12 -12 -16
-18 -4 -6 -8 -2 -8 8 0 9 7 17 17 17 9 0 12 -3 7 -7z m-286 -23 c-7 -10 -14
-17 -17 -15 -4 4 18 35 25 35 2 0 -1 -9 -8 -20z m392 4 c0 -2 -9 -4 -21 -4
-11 0 -18 4 -14 10 5 8 35 3 35 -6z m1748 -19 c-1 -1 -14 -6 -28 -10 -23 -7
-23 -7 -7 9 9 10 17 23 17 29 0 7 5 4 11 -6 6 -10 9 -20 7 -22z m167 15 c3 -6
-1 -7 -9 -4 -18 7 -21 14 -7 14 6 0 13 -4 16 -10z m-242 -10 c-13 -5 -23 -17
-23 -26 0 -12 -3 -14 -13 -5 -10 8 -17 7 -25 -1 -9 -9 -12 -9 -12 0 0 6 11 14
25 18 14 3 25 10 25 15 0 5 10 9 23 8 l22 0 -22 -9z m-1823 -10 c8 -5 11 -10
5 -10 -5 0 -17 5 -25 10 -8 5 -10 10 -5 10 6 0 17 -5 25 -10z m-160 -6 c0 -8
-19 -13 -24 -6 -3 5 1 9 9 9 8 0 15 -2 15 -3z m311 -16 c11 -21 11 -22 -4 -9
-10 7 -17 17 -17 22 0 15 9 10 21 -13z m-371 -3 c0 -8 -4 -15 -10 -15 -5 0
-10 -7 -10 -15 0 -8 -7 -15 -15 -15 -8 0 -15 5 -15 11 0 5 4 8 9 5 5 -3 12 5
15 19 7 27 26 34 26 10z m2220 5 c0 -5 -4 -10 -10 -10 -5 0 -10 5 -10 10 0 6
5 10 10 10 6 0 10 -4 10 -10z m-1989 -30 c25 14 36 7 41 -29 3 -18 0 -28 -5
-24 -6 3 -16 -2 -24 -12 -16 -22 -16 -20 -3 25 8 28 7 32 -3 19 -11 -15 -14
-14 -29 6 -9 12 -14 26 -10 30 4 4 8 0 10 -9 3 -13 8 -14 23 -6z m1899 -13 c0
-4 -6 -7 -12 -6 -27 3 -38 -2 -38 -18 0 -9 -3 -14 -6 -10 -3 3 -3 15 1 26 4
14 14 20 31 19 13 -1 24 -6 24 -11z m140 -1 c0 -10 -7 -12 -22 -8 -21 5 -21 6
-2 13 10 4 20 8 22 8 1 1 2 -5 2 -13z m-2167 -16 c20 -18 -21 -16 -43 2 l-24
19 30 -7 c16 -3 33 -10 37 -14z m1887 6 c0 -3 -4 -8 -10 -11 -5 -3 -10 -1 -10
4 0 6 5 11 10 11 6 0 10 -2 10 -4z m-1570 -15 c0 -5 -7 -12 -16 -15 -10 -4
-13 -2 -8 6 5 8 2 9 -10 5 -10 -4 -15 -3 -11 3 8 12 45 13 45 1z m1820 -11 c0
-5 -5 -10 -11 -10 -5 0 -7 5 -4 10 3 6 8 10 11 10 2 0 4 -4 4 -10z m-1928 -28
c-16 -5 -15 -29 1 -35 6 -3 2 -4 -10 -4 -26 1 -27 21 -3 50 10 12 16 14 19 5
2 -6 -1 -14 -7 -16z m42 13 c-4 -8 -10 -12 -15 -9 -14 8 -10 24 6 24 9 0 12
-6 9 -15z m1666 5 c0 -5 -4 -10 -10 -10 -5 0 -10 5 -10 10 0 6 5 10 10 10 6 0
10 -4 10 -10z m90 -10 c0 -11 -7 -20 -15 -20 -27 0 -18 30 13 39 1 1 2 -8 2
-19z m80 4 c0 -8 -4 -13 -9 -10 -5 4 -12 0 -14 -6 -3 -7 -6 -3 -6 10 -1 13 5
22 14 22 8 0 15 -7 15 -16z m153 -3 c3 -14 1 -18 -9 -14 -15 6 -18 16 -7 26 9
10 10 9 16 -12z m-442 -13 c0 -10 2 -10 5 -1 4 8 13 5 30 -10 14 -12 29 -22
32 -23 35 -4 55 -35 32 -49 -6 -4 -7 1 -3 12 6 16 5 16 -10 4 -15 -12 -17 -12
-11 3 4 11 1 16 -11 16 -9 0 -13 -4 -10 -10 3 -5 1 -10 -5 -10 -6 0 -10 6 -9
13 3 27 -2 35 -31 41 -16 3 -30 10 -30 16 0 15 20 12 21 -2z m84 -9 c-10 -15
-25 -10 -19 6 4 8 10 12 15 9 5 -3 7 -10 4 -15z m316 3 c-7 -2 -18 1 -23 6 -8
8 -4 9 13 5 13 -4 18 -8 10 -11z m-2301 -2 c0 -5 -4 -10 -10 -10 -5 0 -10 5
-10 10 0 6 5 10 10 10 6 0 10 -4 10 -10z m175 0 c3 -5 1 -10 -4 -10 -6 0 -11
5 -11 10 0 6 2 10 4 10 3 0 8 -4 11 -10z m1873 -18 c2 -7 -1 -12 -7 -12 -6 0
-11 5 -11 11 0 5 -5 7 -12 3 -7 -4 -8 -3 -4 5 9 14 28 10 34 -7z m-192 -14
c-9 -5 -22 -7 -29 -4 -7 2 -4 5 6 5 9 1 17 6 17 12 0 5 5 7 11 3 8 -5 6 -10
-5 -16z m290 -20 c-19 -26 -20 -20 -5 19 6 15 13 22 16 16 2 -7 -3 -23 -11
-35z m-1888 18 c-7 -8 -15 -12 -17 -11 -5 6 10 25 20 25 5 0 4 -6 -3 -14z
m2152 4 c0 -5 -7 -10 -16 -10 -8 0 -12 5 -9 10 3 6 10 10 16 10 5 0 9 -4 9
-10z m-2525 -27 c-27 -19 -37 -16 -18 6 9 11 21 17 26 14 6 -3 2 -12 -8 -20z
m265 2 c0 -6 -13 -12 -30 -13 -21 -2 -30 2 -30 13 0 11 9 15 30 13 17 -1 30
-7 30 -13z m160 11 c0 -3 -4 -8 -10 -11 -5 -3 -10 -1 -10 4 0 6 5 11 10 11 6
0 10 -2 10 -4z m2006 -38 c-6 -4 -15 -8 -21 -8 -5 0 -4 4 4 9 9 6 10 11 2 15
-6 4 -11 11 -11 17 0 5 8 1 18 -8 12 -12 14 -21 8 -25z m-2136 25 c0 -5 -5
-15 -10 -23 -8 -12 -10 -11 -10 8 0 12 5 22 10 22 6 0 10 -3 10 -7z m96 -18
c4 -8 10 -12 15 -9 5 3 9 0 9 -5 0 -17 -14 -13 -33 9 -9 11 -12 20 -7 20 6 0
13 -7 16 -15z m1614 2 c16 1 19 -1 7 -4 -10 -3 -16 -10 -14 -17 3 -7 0 -13 -6
-14 -7 0 -23 -3 -36 -6 -13 -3 -21 -3 -17 1 3 3 1 12 -6 20 -6 8 -7 13 -2 12
21 -4 28 2 14 12 -11 8 -9 9 10 3 14 -4 36 -7 50 -7z m30 -39 c-11 -12 -20
-26 -20 -32 0 -6 -5 -5 -12 2 -7 7 -17 8 -29 2 -11 -7 -20 -7 -24 0 -3 5 4 11
17 11 46 2 53 4 53 14 0 17 16 36 26 30 5 -3 0 -16 -11 -27z m145 23 c3 -5 1
-12 -5 -16 -5 -3 -10 1 -10 9 0 18 6 21 15 7z m-32 -21 c-3 -11 -7 -20 -9 -20
-2 0 -4 9 -4 20 0 11 4 20 9 20 5 0 7 -9 4 -20z m-1788 0 c3 -5 1 -10 -4 -10
-6 0 -11 5 -11 10 0 6 2 10 4 10 3 0 8 -4 11 -10z m1737 -2 c-9 -9 -9 -15 1
-27 10 -14 10 -14 -4 -4 -9 7 -19 9 -24 5 -4 -4 -1 3 6 16 8 12 18 22 23 22 6
0 5 -5 -2 -12z m-2107 -8 c3 -5 1 -10 -4 -10 -6 0 -11 5 -11 10 0 6 2 10 4 10
3 0 8 -4 11 -10z m206 -10 c5 0 9 -7 9 -16 0 -9 -7 -14 -17 -12 -10 1 -24 -1
-31 -6 -11 -7 -12 -4 -3 11 6 11 7 24 3 28 -4 5 1 5 11 2 10 -4 23 -7 28 -7z
m2026 4 c-3 -3 -12 -4 -19 -1 -8 3 -5 6 6 6 11 1 17 -2 13 -5z m-1812 -14 c-3
-5 -13 -10 -21 -10 -8 0 -12 5 -9 10 3 6 13 10 21 10 8 0 12 -4 9 -10z m1520
0 c-4 -6 0 -21 8 -34 15 -22 14 -23 -9 -18 -13 2 -24 7 -24 11 1 20 14 51 22
51 5 0 6 -5 3 -10z m398 -5 c-3 -9 -8 -14 -10 -11 -3 3 -2 9 2 15 9 16 15 13
8 -4z m-1959 -11 c3 -8 2 -12 -4 -9 -6 3 -10 10 -10 16 0 14 7 11 14 -7z
m1781 6 c-3 -5 -11 -10 -16 -10 -6 0 -7 5 -4 10 3 6 11 10 16 10 6 0 7 -4 4
-10z m279 -1 c-2 -4 -12 -9 -23 -12 -13 -3 -18 -1 -14 8 2 8 13 13 23 12 10
-1 17 -4 14 -8z m-2189 -9 c-3 -5 -12 -10 -18 -10 -7 0 -6 4 3 10 19 12 23 12
15 0z m-235 -10 c0 -5 -8 -10 -17 -10 -15 0 -16 2 -3 10 19 12 20 12 20 0z
m450 1 c0 -5 -9 -19 -20 -32 -17 -21 -19 -22 -20 -5 0 14 -5 17 -21 13 -17 -5
-19 -3 -10 6 9 9 16 9 30 0 16 -10 18 -9 14 8 -4 13 0 19 11 19 9 0 16 -4 16
-9z m1630 -1 c0 -5 -2 -10 -4 -10 -3 0 -8 5 -11 10 -3 6 -1 10 4 10 6 0 11 -4
11 -10z m-2050 -10 c0 -5 -2 -10 -4 -10 -3 0 -8 5 -11 10 -3 6 -1 10 4 10 6 0
11 -4 11 -10z m2010 0 c0 -5 -5 -10 -11 -10 -5 0 -7 5 -4 10 3 6 8 10 11 10 2
0 4 -4 4 -10z m198 -10 c-7 -10 -14 -18 -15 -16 -6 6 9 36 18 36 5 0 4 -9 -3
-20z m-1891 -10 c1 -16 -1 -17 -12 -7 -11 10 -8 19 10 27 1 0 1 -9 2 -20z
m1640 -6 c-9 -9 -28 6 -21 18 4 6 10 6 17 -1 6 -6 8 -13 4 -17z m-2017 6 c0
-5 -2 -10 -4 -10 -3 0 -8 5 -11 10 -3 6 -1 10 4 10 6 0 11 -4 11 -10z m200 1
c0 -5 -13 -14 -29 -19 -16 -6 -35 -20 -41 -31 -6 -12 -15 -19 -21 -16 -14 9
-11 25 5 25 8 0 16 3 18 8 4 9 50 41 61 41 4 1 7 -3 7 -8z m122 -14 c-12 -13
-20 -26 -16 -29 3 -3 1 -9 -5 -13 -6 -3 -11 1 -11 11 0 20 28 54 43 54 6 0 1
-10 -11 -23z m-276 -5 c0 -10 -6 -19 -13 -19 -16 0 -17 9 -1 25 15 15 14 15
14 -6z m2053 -8 c14 -12 -19 -1 -35 12 -18 14 -18 14 6 3 14 -6 27 -13 29 -15z
m-1839 -4 c0 -5 -7 -7 -15 -4 -8 4 -15 8 -15 10 0 2 7 4 15 4 8 0 15 -4 15
-10z m212 -24 c22 -27 23 -46 1 -46 -14 0 -15 2 -5 9 11 7 10 9 -3 15 -9 3
-13 10 -10 16 3 5 4 10 1 10 -2 0 -13 3 -23 6 -15 5 -16 4 -3 -6 13 -10 13
-11 0 -7 -8 2 -16 11 -18 20 -4 22 37 10 60 -17z m1578 23 c0 -6 -9 -8 -20 -4
-16 5 -19 3 -14 -12 5 -14 4 -15 -4 -3 -6 8 -8 18 -6 22 8 12 44 10 44 -3z
m187 -4 c0 -8 -4 -12 -9 -9 -5 3 -6 10 -3 15 9 13 12 11 12 -6z m180 -4 c-1
-13 -7 -18 -19 -16 -10 2 -18 0 -18 -6 0 -5 -9 -9 -20 -9 -14 0 -20 7 -20 21
0 18 4 20 36 15 22 -4 33 -2 29 4 -3 5 -2 10 4 10 5 0 9 -9 8 -19z m114 -4
c-10 -9 -11 -8 -5 6 3 10 9 15 12 12 3 -3 0 -11 -7 -18z m-2181 9 c0 -2 -7 -6
-15 -10 -8 -3 -15 -1 -15 4 0 6 7 10 15 10 8 0 15 -2 15 -4z m1609 -8 c40 6
48 -15 10 -23 -31 -7 -50 5 -48 30 0 6 2 5 5 -1 2 -6 17 -9 33 -6z m-1729 -19
c0 -11 -4 -17 -10 -14 -5 3 -10 13 -10 21 0 8 5 14 10 14 6 0 10 -9 10 -21z
m1934 6 c-7 -17 -20 -20 -28 -6 -7 10 3 21 20 21 8 0 11 -6 8 -15z m316 5 c0
-5 -4 -10 -10 -10 -5 0 -10 5 -10 10 0 6 5 10 10 10 6 0 10 -4 10 -10z m-2205
-12 c4 4 2 -4 -5 -18 -13 -23 -14 -24 -21 -5 -12 30 -10 39 4 26 8 -6 17 -7
22 -3z m1687 -38 c10 0 18 5 18 12 0 6 3 9 6 6 3 -4 1 -15 -5 -27 -9 -16 -8
-22 6 -30 16 -9 14 -10 -9 -11 -20 0 -27 5 -30 23 -2 12 -7 22 -13 22 -5 0
-15 4 -22 8 -6 4 -15 2 -19 -4 -3 -6 -1 -15 6 -19 8 -5 7 -9 -4 -13 -10 -4
-16 -1 -16 7 0 8 -7 16 -15 20 -26 10 -17 29 10 22 14 -4 25 -2 25 4 0 5 -5
10 -11 10 -5 0 -7 4 -4 10 3 6 18 -1 33 -15 15 -14 35 -25 44 -25z m142 35
c11 -8 15 -15 10 -15 -6 0 -19 7 -30 15 -10 8 -14 14 -9 14 6 0 19 -6 29 -14z
m-2077 -1 c-3 -3 -12 -4 -19 -1 -8 3 -5 6 6 6 11 1 17 -2 13 -5z m15 -26 c-7
-7 -12 -8 -12 -2 0 14 12 26 19 19 2 -3 -1 -11 -7 -17z m588 -18 c0 -13 -1
-13 -10 0 -5 8 -10 22 -10 30 0 13 1 13 10 0 5 -8 10 -22 10 -30z m40 30 c0
-5 -5 -10 -11 -10 -5 0 -8 -4 -4 -9 3 -5 1 -12 -5 -16 -6 -4 -10 5 -10 19 0
16 6 26 15 26 8 0 15 -4 15 -10z m-550 -9 c0 -5 -10 -11 -22 -14 -22 -6 -22
-6 -4 8 23 17 26 18 26 6z m190 -4 c0 -8 -3 -17 -7 -20 -9 -9 -34 13 -27 24 8
14 34 11 34 -4z m100 3 c0 -5 -7 -10 -16 -10 -8 0 -12 5 -9 10 3 6 10 10 16
10 5 0 9 -4 9 -10z m185 0 c3 -5 1 -10 -4 -10 -6 0 -11 5 -11 10 0 6 2 10 4
10 3 0 8 -4 11 -10z m1525 -22 c0 -12 -10 -9 -26 6 -20 21 -17 28 6 14 11 -7
20 -16 20 -20z m147 8 c-13 -13 -16 -13 -20 -1 -4 8 1 15 11 18 24 5 27 0 9
-17z m-1720 -8 c-3 -8 -6 -5 -6 6 -1 11 2 17 5 13 3 -3 4 -12 1 -19z m1661 17
c-10 -10 -49 -14 -43 -4 4 5 16 9 27 9 12 0 19 -2 16 -5z m-2011 -28 c11 4 14
2 11 -8 -3 -8 -12 -14 -21 -14 -9 0 -24 -9 -33 -20 -13 -17 -13 -15 1 9 17 28
17 29 -1 22 -17 -7 -17 -6 1 12 14 14 21 15 23 6 2 -7 10 -10 19 -7z m226 8
c-3 -9 -8 -14 -10 -11 -3 3 -2 9 2 15 9 16 15 13 8 -4z m1617 -1 c0 -2 -9 -4
-20 -4 -11 0 -20 4 -20 9 0 5 9 7 20 4 11 -3 20 -7 20 -9z m290 11 c0 -7 -30
-13 -34 -7 -3 4 4 9 15 9 10 1 19 0 19 -2z m30 -5 c0 -5 -4 -10 -10 -10 -5 0
-10 5 -10 10 0 6 5 10 10 10 6 0 10 -4 10 -10z m-270 -10 c0 -5 -7 -10 -16
-10 -8 0 -12 5 -9 10 3 6 10 10 16 10 5 0 9 -4 9 -10z m-2026 -15 c-4 -8 -11
-12 -16 -9 -6 4 -5 10 3 15 19 12 19 11 13 -6z m186 11 c0 -3 -4 -8 -10 -11
-5 -3 -10 -1 -10 4 0 6 5 11 10 11 6 0 10 -2 10 -4z m133 -21 c-6 -16 -43 -21
-43 -5 0 11 32 30 42 24 4 -3 5 -11 1 -19z m222 16 c3 -5 1 -12 -4 -15 -5 -4
-11 -1 -13 6 -3 7 -7 3 -10 -9 -4 -16 -2 -20 8 -16 8 3 14 1 14 -5 0 -15 -54
-26 -58 -12 -3 7 -9 4 -17 -7 -21 -28 -39 -3 -19 26 11 15 20 19 26 13 7 -7
17 -4 31 9 23 21 33 24 42 10z m1815 5 c0 -2 -7 -7 -16 -10 -8 -3 -12 -2 -9 4
6 10 25 14 25 6z m-1917 -23 c-7 -17 -20 -17 -26 1 -4 10 0 14 12 13 11 -1 17
-7 14 -14z m133 8 c-3 -4 1 -17 9 -27 19 -25 19 -35 0 -28 -8 4 -12 10 -9 15
3 5 -1 9 -9 9 -10 0 -13 7 -10 20 3 11 10 20 15 20 5 0 7 -4 4 -9z m1300 1
c-3 -5 6 -15 19 -22 14 -7 25 -18 25 -24 0 -6 -4 -6 -11 1 -6 6 -18 9 -25 6
-8 -3 -14 0 -14 6 0 6 -7 11 -15 11 -21 0 -19 18 3 23 9 3 18 5 20 6 2 0 1 -3
-2 -7z m401 -14 c-3 -8 -6 -5 -6 6 -1 11 2 17 5 13 3 -3 4 -12 1 -19z m-587 2
c0 -5 -2 -10 -4 -10 -3 0 -8 5 -11 10 -3 6 -1 10 4 10 6 0 11 -4 11 -10z m290
0 c0 -5 -5 -10 -11 -10 -5 0 -7 5 -4 10 3 6 8 10 11 10 2 0 4 -4 4 -10z m270
6 c0 -3 -4 -8 -10 -11 -5 -3 -10 -1 -10 4 0 6 5 11 10 11 6 0 10 -2 10 -4z
m158 -8 c-2 -6 -12 -12 -23 -14 -10 -1 -22 -9 -26 -16 -5 -8 -9 -9 -9 -2 0 12
38 43 53 43 5 1 7 -4 5 -11z m-2143 -8 c3 -6 -1 -7 -9 -4 -18 7 -21 14 -7 14
6 0 13 -4 16 -10z m150 -1 c4 -6 -1 -16 -10 -23 -10 -7 -16 -19 -13 -27 5 -15
-8 -32 -33 -41 -13 -5 -16 -2 -12 12 3 13 0 18 -11 16 -8 -1 -19 -5 -22 -9 -4
-4 -11 -7 -16 -7 -4 0 1 9 12 20 11 11 23 19 28 18 17 -3 42 16 42 33 0 20 24
26 35 8z m-45 -9 c0 -5 -5 -10 -11 -10 -5 0 -7 5 -4 10 3 6 8 10 11 10 2 0 4
-4 4 -10z m1649 -37 c1 -7 -6 -13 -14 -13 -15 0 -21 40 -8 54 7 7 21 -18 22
-41z m101 37 c0 -5 -4 -10 -10 -10 -5 0 -10 5 -10 10 0 6 5 10 10 10 6 0 10
-4 10 -10z m-1866 -15 c3 -9 0 -15 -9 -15 -9 0 -12 6 -9 15 4 8 7 15 9 15 2 0
5 -7 9 -15z m2046 -19 c-8 -23 -14 -26 -42 -21 -36 7 -44 12 -35 21 3 3 12 2
19 -2 22 -14 41 -14 29 0 -13 16 -4 27 15 19 8 -3 14 1 14 8 0 7 2 10 5 7 3
-3 1 -17 -5 -32z m-2274 -11 c1 -8 -4 -15 -12 -15 -8 0 -14 5 -14 10 0 6 5 10
11 10 5 0 7 6 3 13 -4 6 -3 8 1 4 5 -4 10 -14 11 -22z m154 21 c0 -3 -4 -8
-10 -11 -5 -3 -10 -1 -10 4 0 6 5 11 10 11 6 0 10 -2 10 -4z m286 -30 c-8 -17
-17 -23 -21 -17 -3 6 -11 8 -17 5 -7 -4 -8 -2 -4 4 4 7 14 12 22 12 8 0 17 7
21 15 3 9 7 14 9 12 3 -2 -2 -16 -10 -31z m1674 30 c0 -3 -4 -8 -10 -11 -5 -3
-10 -1 -10 4 0 6 5 11 10 11 6 0 10 -2 10 -4z m-1995 -14 c-3 -3 3 -11 13 -18
9 -7 15 -14 12 -17 -3 -2 -15 6 -28 18 -17 16 -19 22 -8 22 9 0 14 -3 11 -5z
m2240 -2 c3 -5 -1 -10 -9 -10 -9 0 -16 5 -16 10 0 6 4 10 9 10 6 0 13 -4 16
-10z m-477 -20 c-15 -24 -24 -25 -31 -6 -5 13 5 20 36 25 4 0 2 -8 -5 -19z
m46 -5 c-4 -8 -11 -15 -16 -15 -6 0 -5 6 2 15 7 8 14 15 16 15 2 0 1 -7 -2
-15z m-1684 1 c0 -3 -4 -8 -10 -11 -5 -3 -10 -1 -10 4 0 6 5 11 10 11 6 0 10
-2 10 -4z m1800 -12 c0 -8 -4 -12 -10 -9 -5 3 -10 10 -10 16 0 5 5 9 10 9 6 0
10 -7 10 -16z m120 2 c0 -2 -7 -7 -16 -10 -8 -3 -12 -2 -9 4 6 10 25 14 25 6z
m-1870 -16 c0 -5 -7 -7 -15 -4 -8 4 -15 8 -15 10 0 2 7 4 15 4 8 0 15 -4 15
-10z m180 -2 c0 -6 -3 -8 -7 -5 -3 4 -11 -1 -18 -10 -6 -8 -18 -14 -25 -11
-10 3 -9 8 4 21 20 19 46 23 46 5z m-80 -8 c0 -5 -7 -10 -16 -10 -8 0 -12 5
-9 10 3 6 10 10 16 10 5 0 9 -4 9 -10z m1626 -27 c-11 -11 -19 6 -11 24 8 17
8 17 12 0 3 -10 2 -21 -1 -24z m-101 17 c-3 -5 -12 -10 -18 -10 -7 0 -6 4 3
10 19 12 23 12 15 0z m-1915 -21 c0 -5 -7 -9 -15 -9 -8 0 -15 7 -15 15 0 9 6
12 15 9 8 -4 15 -10 15 -15z m141 -6 c-12 -20 -14 -14 -5 12 4 9 9 14 11 11 3
-2 0 -13 -6 -23z m1814 9 c-3 -3 -11 0 -18 7 -9 10 -8 11 6 5 10 -3 15 -9 12
-12z m250 8 c3 -5 -3 -10 -14 -10 -12 0 -21 5 -21 10 0 6 6 10 14 10 8 0 18
-4 21 -10z m-1721 -15 c-7 -16 -24 -21 -24 -6 0 8 7 13 27 20 1 1 0 -6 -3 -14z
m1276 -15 c0 -5 -5 -10 -11 -10 -5 0 -7 5 -4 10 3 6 8 10 11 10 2 0 4 -4 4
-10z m-1417 -20 c-3 -11 -10 -20 -15 -20 -6 0 -7 7 -4 16 4 10 2 13 -6 8 -7
-4 -8 -3 -4 4 12 20 35 14 29 -8z m165 -5 c-3 -3 -9 2 -12 12 -6 14 -5 15 5 6
7 -7 10 -15 7 -18z m1759 19 c-3 -3 -12 -4 -19 -1 -8 3 -5 6 6 6 11 1 17 -2
13 -5z m-2237 -14 c0 -5 -2 -10 -4 -10 -3 0 -8 5 -11 10 -3 6 -1 10 4 10 6 0
11 -4 11 -10z m360 1 c0 -14 -18 -23 -31 -15 -8 4 -7 9 2 15 18 11 29 11 29 0z
m46 -8 c13 -17 14 -17 8 0 -3 9 -1 17 5 17 12 0 14 -11 5 -34 -6 -17 -26 -23
-21 -7 1 5 -7 17 -18 25 -13 10 -15 15 -6 16 8 0 20 -8 27 -17z m1196 8 c8 11
9 10 4 -3 -3 -12 0 -18 9 -18 8 0 15 -2 15 -4 0 -2 3 -11 6 -19 3 -8 -2 -17
-12 -21 -15 -6 -15 -4 -3 11 12 15 12 16 -3 10 -12 -4 -18 -2 -18 8 0 8 -5 15
-11 15 -7 0 -9 -10 -4 -27 7 -29 21 -43 43 -43 7 0 10 -5 7 -11 -4 -6 -13 -8
-21 -5 -7 3 -20 -2 -29 -10 -8 -8 -20 -12 -26 -9 -6 5 -4 12 8 22 17 14 17 14
0 9 -12 -4 -17 -2 -14 6 2 7 10 12 17 10 8 -2 10 5 7 20 -7 26 4 81 11 59 4
-11 6 -11 14 0z m292 -7 c3 -8 11 -12 17 -8 8 4 9 3 5 -4 -5 -9 -12 -8 -26 1
-21 12 -26 27 -11 27 5 0 12 -7 15 -16z m136 6 c0 -5 -2 -10 -4 -10 -3 0 -8 5
-11 10 -3 6 -1 10 4 10 6 0 11 -4 11 -10z m282 -4 c7 4 8 2 4 -5 -9 -13 -26
-5 -25 12 0 9 2 8 6 -1 2 -6 10 -9 15 -6z m-2252 -6 c0 -5 -4 -10 -10 -10 -5
0 -10 5 -10 10 0 6 5 10 10 10 6 0 10 -4 10 -10z m220 -4 c0 -2 -11 -6 -25 -8
-13 -3 -22 -1 -19 3 5 9 44 13 44 5z m198 -17 c-19 -12 -25 -11 -25 5 0 8 8
11 20 8 14 -4 16 -7 5 -13z m-348 -4 c0 -8 -4 -15 -10 -15 -5 0 -10 7 -10 15
0 8 5 15 10 15 6 0 10 -7 10 -15z m1592 3 c-9 -9 -15 -9 -24 0 -9 9 -7 12 12
12 19 0 21 -3 12 -12z m78 -3 c5 3 11 1 14 -4 3 -5 -2 -11 -12 -13 -13 -4 -18
1 -19 16 -1 12 1 15 4 8 3 -6 9 -10 13 -7z m75 5 c3 -6 -1 -13 -10 -16 -19 -8
-30 0 -20 15 8 14 22 14 30 1z m85 6 c0 -2 -7 -6 -15 -10 -8 -3 -15 -1 -15 4
0 6 7 10 15 10 8 0 15 -2 15 -4z m92 -18 c-7 -7 -12 -8 -12 -2 0 14 12 26 19
19 2 -3 -1 -11 -7 -17z m-62 2 c0 -5 -5 -10 -11 -10 -5 0 -7 5 -4 10 3 6 8 10
11 10 2 0 4 -4 4 -10z m150 0 c-19 -13 -30 -13 -30 0 0 6 10 10 23 10 18 0 19
-2 7 -10z m-1948 -22 c-5 -5 -17 -6 -26 -2 -13 5 -14 9 -5 14 16 11 43 0 31
-12z m148 -3 c0 -14 5 -25 10 -25 6 0 10 5 10 10 0 6 10 9 23 9 16 -1 18 -2 5
-6 -10 -2 -18 -13 -18 -24 0 -10 -7 -19 -15 -19 -8 0 -15 4 -15 10 0 5 -8 6
-17 3 -16 -6 -16 -5 -4 10 7 9 11 26 8 37 -3 11 -1 20 4 20 5 0 9 -11 9 -25z
m1963 10 c-3 -9 -8 -14 -10 -11 -3 3 -2 9 2 15 9 16 15 13 8 -4z m-2243 -10
c0 -8 -6 -15 -14 -15 -17 0 -28 14 -19 24 12 12 33 6 33 -9z m177 -10 c-9 -8
-18 -11 -22 -6 -3 6 3 14 12 20 24 13 29 6 10 -14z m281 4 c8 -19 10 -20 24
-6 21 22 30 10 10 -13 -9 -10 -25 -30 -35 -44 -11 -16 -23 -23 -30 -19 -7 4
-16 8 -21 8 -5 0 -11 6 -13 13 -3 7 4 12 16 12 11 0 19 6 17 13 -1 6 -1 9 1 5
3 -5 11 -8 20 -8 10 0 12 6 7 23 -9 31 -14 34 -24 17 -8 -13 -10 -12 -10 3 0
24 29 21 38 -4z m1162 -15 c0 -24 -17 -15 -22 11 -4 20 -3 23 8 14 8 -6 14
-18 14 -25z m60 15 c0 -12 -8 -23 -19 -26 -13 -3 -18 -10 -14 -21 4 -10 2 -13
-5 -8 -15 9 -15 17 -2 50 12 31 40 35 40 5z m41 -9 c5 0 19 -9 31 -20 22 -20
15 -27 -11 -11 -10 7 -18 5 -25 -5 -8 -9 -16 -11 -26 -4 -11 7 -12 10 -2 10
10 0 12 9 7 33 -5 25 -4 28 5 15 6 -10 15 -18 21 -18z m133 18 c-3 -4 -11 -5
-19 -1 -21 7 -19 12 4 10 11 0 18 -5 15 -9z m168 4 c-7 -5 -10 -17 -7 -28 6
-17 6 -18 -5 -1 -12 19 -6 37 13 37 9 0 8 -3 -1 -8z m-1632 -27 c14 -19 14
-19 -2 -6 -10 7 -18 18 -18 24 0 6 1 8 3 6 1 -2 9 -13 17 -24z m194 16 c3 -5
-1 -11 -9 -15 -15 -6 -29 7 -18 18 9 9 21 8 27 -3z m1196 -1 c13 -8 13 -10 -2
-10 -9 0 -20 5 -23 10 -8 13 5 13 25 0z m-1548 -22 c-6 -6 -16 -7 -22 -3 -9 6
-9 9 1 16 17 10 34 0 21 -13z m1733 4 c-3 -3 -11 0 -18 7 -9 10 -8 11 6 5 10
-3 15 -9 12 -12z m-1429 -24 c-23 -13 -40 0 -25 18 9 11 15 12 26 2 12 -10 12
-13 -1 -20z m1391 10 c-3 -8 -6 -5 -6 6 -1 11 2 17 5 13 3 -3 4 -12 1 -19z
m-1857 2 c0 -5 -4 -10 -10 -10 -5 0 -10 5 -10 10 0 6 5 10 10 10 6 0 10 -4 10
-10z m280 0 c0 -5 -7 -7 -15 -4 -8 4 -15 8 -15 10 0 2 7 4 15 4 8 0 15 -4 15
-10z m1458 -1 c-2 -6 -8 -10 -13 -10 -5 0 -11 4 -13 10 -2 6 4 11 13 11 9 0
15 -5 13 -11z m367 3 c-2 -3 0 -12 5 -21 7 -15 4 -17 -21 -13 -41 6 -40 42 2
39 10 -1 16 -3 14 -5z m-2035 -22 c0 -11 -4 -20 -10 -20 -5 0 -10 9 -10 20 0
11 5 20 10 20 6 0 10 -9 10 -20z m1344 -1 c14 -21 12 -49 -5 -49 -5 0 -9 7 -9
15 0 8 -8 15 -17 16 -11 0 -13 3 -5 6 6 2 12 9 12 15 0 6 -7 7 -16 4 -8 -3
-12 -2 -9 4 10 17 33 11 49 -11z m354 -10 c-3 -8 -7 -3 -11 10 -4 17 -3 21 5
13 5 -5 8 -16 6 -23z m-1663 11 c-3 -5 -10 -10 -16 -10 -5 0 -9 5 -9 10 0 6 7
10 16 10 8 0 12 -4 9 -10z m95 -8 c0 -5 -7 -9 -15 -9 -8 0 -15 4 -15 9 0 4 7
8 15 8 8 0 15 -4 15 -8z m1601 -26 c-11 -27 -21 -36 -17 -13 5 21 18 48 23 44
2 -2 -1 -16 -6 -31z m-1546 14 c3 -5 -1 -10 -10 -10 -9 0 -13 5 -10 10 3 6 8
10 10 10 2 0 7 -4 10 -10z m200 1 c3 -6 -3 -9 -14 -8 -11 0 -17 5 -15 9 7 11
22 10 29 -1z m159 0 c9 -13 -19 -21 -35 -9 -11 8 -10 9 4 4 9 -3 17 -1 17 4 0
12 7 13 14 1z m76 -16 c-7 -8 -16 -13 -20 -10 -5 3 -11 -3 -14 -12 -3 -11 -4
-8 -3 7 1 14 7 25 14 25 6 0 15 3 19 8 13 13 17 -2 4 -18z m627 18 c-4 -3 -2
-12 4 -19 8 -10 6 -13 -9 -11 -16 1 -19 5 -11 19 5 10 13 18 16 18 3 0 3 -3 0
-7z m178 -15 c-15 -9 -15 -11 2 -24 17 -12 16 -13 -8 -14 -16 0 -26 5 -26 15
0 8 4 15 9 15 4 0 8 7 8 15 0 9 6 12 16 8 15 -5 15 -7 -1 -15z m-1331 -4 c4
-11 1 -14 -11 -12 -9 2 -18 9 -21 16 -6 18 25 15 32 -4z m130 1 c-4 -8 -10
-15 -14 -15 -5 0 -10 -10 -12 -22 -2 -14 -6 -19 -10 -12 -4 7 2 23 13 38 23
29 31 33 23 11z m210 -16 c-9 -16 -20 -10 -21 12 -2 17 1 18 12 9 8 -7 12 -16
9 -21z m46 22 c0 -6 -4 -12 -8 -15 -5 -3 -9 1 -9 9 0 8 4 15 9 15 4 0 8 -4 8
-9z m1007 -13 c-3 -8 -6 -5 -6 6 -1 11 2 17 5 13 3 -3 4 -12 1 -19z m80 9 c0
-7 -9 -14 -20 -14 -19 -2 -19 -2 -1 12 11 8 19 15 20 15 0 0 1 -6 1 -13z
m-1222 -7 c4 -6 11 -8 16 -5 11 8 12 -5 0 -23 -6 -11 -11 -10 -25 3 -9 9 -16
21 -16 26 0 12 17 12 25 -1z m1440 1 c3 -5 2 -12 -3 -15 -5 -3 -9 1 -9 9 0 17
3 19 12 6z m-1825 -16 c-7 -9 -15 -13 -19 -10 -3 3 1 10 9 15 21 14 24 12 10
-5z m300 6 c0 -6 -4 -13 -10 -16 -5 -3 -10 1 -10 9 0 9 5 16 10 16 6 0 10 -4
10 -9z m374 -3 c-5 -8 -2 -9 9 -5 10 3 17 2 17 -3 0 -6 -4 -10 -10 -10 -5 0
-10 -10 -10 -21 0 -18 -3 -19 -14 -10 -11 9 -20 9 -35 2 -27 -15 -34 -14 -19
3 7 8 16 12 19 10 3 -2 11 8 17 21 7 14 16 25 22 25 6 0 8 -5 4 -12z m-306
-22 c8 -19 8 -25 -3 -30 -7 -2 -16 2 -19 10 -3 9 -1 12 4 9 6 -3 10 -1 10 4 0
6 -7 11 -15 11 -8 0 -15 5 -15 10 0 20 27 10 38 -14z m197 2 c6 -4 2 -8 -7 -8
-10 0 -18 7 -18 17 0 9 3 12 8 7 4 -5 12 -12 17 -16z m941 -34 c-20 -29 -26
-30 -26 -4 0 11 7 20 16 20 11 0 14 6 9 23 -5 19 -5 20 5 4 9 -14 8 -24 -4
-43z m397 49 c4 -3 0 -15 -10 -25 -9 -10 -12 -18 -7 -18 9 -1 -36 -29 -46 -30
-3 0 -6 14 -7 30 -1 17 2 30 7 30 5 0 7 -6 4 -14 -3 -8 -1 -17 5 -21 6 -3 13
1 16 9 3 9 7 23 10 31 5 16 17 19 28 8z m-1636 -25 c-3 -8 -6 -5 -6 6 -1 11 2
17 5 13 3 -3 4 -12 1 -19z m225 15 c-6 -2 -10 -9 -6 -14 3 -5 0 -9 -7 -9 -10
0 -10 -3 -2 -11 13 -13 43 10 43 33 0 7 6 2 14 -12 7 -14 10 -29 8 -35 -3 -5
-7 -4 -10 3 -5 16 -22 15 -22 -1 0 -7 -7 -22 -15 -33 -12 -15 -14 -15 -9 -2 3
10 -2 24 -15 34 -19 17 -19 19 -4 36 9 10 21 18 27 17 6 0 6 -3 -2 -6z m728
-5 c0 -4 7 -8 16 -8 9 0 14 -5 12 -12 -3 -7 -26 -12 -58 -12 -46 -1 -50 0 -27
8 15 6 26 15 23 21 -2 6 5 11 15 11 11 0 19 -4 19 -8z m90 2 c0 -5 -6 -10 -14
-10 -8 0 -16 -6 -19 -12 -2 -7 -8 -10 -12 -5 -5 4 0 14 11 22 23 17 34 19 34
5z m47 4 c-3 -3 -12 -4 -19 -1 -8 3 -5 6 6 6 11 1 17 -2 13 -5z m83 -25 c0 -5
-7 -9 -15 -9 -22 0 -18 -21 5 -27 24 -6 26 -26 4 -43 -8 -8 -14 -9 -13 -4 5
27 -3 44 -20 44 -24 0 -36 16 -19 23 7 3 3 6 -9 6 -13 1 -23 6 -23 12 0 7 7 8
18 4 28 -12 47 -11 45 2 -2 7 4 10 12 7 8 -4 15 -10 15 -15z m160 11 c0 -5 -2
-10 -4 -10 -3 0 -8 5 -11 10 -3 6 -1 10 4 10 6 0 11 -4 11 -10z m113 3 c8 -7
-11 -33 -23 -33 -5 0 -6 9 -3 20 5 20 15 25 26 13z m-1703 -13 c0 -5 -4 -10
-10 -10 -5 0 -10 5 -10 10 0 6 5 10 10 10 6 0 10 -4 10 -10z m402 -32 c-6 -6
-7 0 -4 19 5 21 7 23 10 9 2 -10 0 -22 -6 -28z m637 39 c-2 -1 -13 -9 -24 -17
-19 -14 -19 -14 -6 3 7 9 18 17 24 17 6 0 8 -1 6 -3z m574 -40 c-8 -5 -17 -6
-20 -3 -4 3 -1 6 5 6 7 0 12 10 13 23 0 21 1 21 8 2 6 -14 4 -23 -6 -28z m34
6 c-3 -10 -5 -4 -5 12 0 17 2 24 5 18 2 -7 2 -21 0 -30z m108 27 c3 -5 -1 -10
-9 -10 -9 0 -16 5 -16 10 0 6 4 10 9 10 6 0 13 -4 16 -10z m-1622 -15 c-3 -9
-8 -14 -10 -11 -3 3 -2 9 2 15 9 16 15 13 8 -4z m440 8 c-14 -5 -18 -34 -5
-31 15 4 52 -14 47 -23 -4 -5 4 -9 16 -9 12 0 19 -3 15 -7 -4 -4 -17 -8 -29
-8 -13 0 -26 -10 -34 -25 -9 -17 -13 -20 -13 -8 0 9 -5 20 -12 24 -7 4 -8 3
-4 -4 9 -15 -12 -54 -25 -46 -7 4 -7 10 0 17 6 6 11 17 11 25 0 8 8 21 18 28
16 13 16 15 -1 28 -20 16 -13 46 12 45 10 0 11 -2 4 -6z m757 -3 c0 -5 -2 -10
-4 -10 -3 0 -8 5 -11 10 -3 6 -1 10 4 10 6 0 11 -4 11 -10z m650 1 c0 -6 -4
-13 -10 -16 -5 -3 -10 1 -10 9 0 9 5 16 10 16 6 0 10 -4 10 -9z m-1736 -16 c3
-8 1 -15 -4 -15 -6 0 -10 7 -10 15 0 8 2 15 4 15 2 0 6 -7 10 -15z m73 -3
c-23 -25 -21 -35 3 -27 11 3 20 2 20 -3 0 -14 -28 -23 -35 -11 -4 5 -11 6 -17
3 -6 -4 -3 7 8 25 10 17 23 31 28 31 5 0 2 -8 -7 -18z m633 8 c0 -5 -4 -10
-10 -10 -5 0 -10 5 -10 10 0 6 5 10 10 10 6 0 10 -4 10 -10z m1090 6 c0 -3 -4
-8 -10 -11 -5 -3 -10 -1 -10 4 0 6 5 11 10 11 6 0 10 -2 10 -4z m-465 -16 c3
-5 1 -10 -4 -10 -6 0 -11 5 -11 10 0 6 2 10 4 10 3 0 8 -4 11 -10z m-625 -21
c0 -5 4 -8 9 -4 5 3 13 0 16 -6 4 -5 13 -8 20 -5 8 3 19 -2 25 -10 10 -11 10
-14 1 -14 -7 0 -10 -4 -7 -9 3 -5 -3 -11 -14 -14 -11 -3 -20 -1 -20 5 0 15
-27 38 -36 30 -5 -4 -6 -3 -2 2 4 5 3 15 -3 23 -9 9 -8 13 0 13 6 0 11 -5 11
-11z m320 5 c0 -3 -7 -12 -15 -20 -12 -13 -15 -13 -15 -1 0 7 3 17 7 20 8 8
23 9 23 1z m76 -21 c-10 -10 -19 5 -10 18 6 11 8 11 12 0 2 -7 1 -15 -2 -18z
m634 23 c0 -3 -4 -8 -10 -11 -5 -3 -10 -1 -10 4 0 6 5 11 10 11 6 0 10 -2 10
-4z m-1780 -16 c0 -5 -5 -10 -11 -10 -5 0 -7 5 -4 10 3 6 8 10 11 10 2 0 4 -4
4 -10z m1110 -10 c-8 -6 -22 -10 -30 -10 -8 0 -4 6 10 13 27 15 44 12 20 -3z
m253 -5 c15 -22 16 -25 2 -25 -8 0 -15 7 -15 15 0 8 -4 15 -10 15 -5 0 -10 5
-10 10 0 17 14 10 33 -15z m179 10 c0 -5 -5 -11 -11 -13 -6 -2 -11 4 -11 13 0
9 5 15 11 13 6 -2 11 -8 11 -13z m-1592 -10 c0 -1 -7 -8 -15 -15 -13 -10 -15
-9 -15 8 0 15 5 20 15 16 8 -4 15 -7 15 -9z m276 -12 c8 -11 13 -13 14 -5 0
14 40 17 40 2 0 -5 -6 -7 -14 -4 -18 7 -31 -27 -14 -38 9 -5 10 -8 1 -8 -7 0
-24 11 -39 25 -15 14 -21 25 -15 25 7 0 9 5 6 10 -11 17 7 11 21 -7z m668 8
c3 -5 -4 -11 -15 -14 -11 -3 -23 -15 -26 -26 -3 -12 -10 -18 -17 -14 -6 4 -6
0 2 -9 10 -13 9 -17 -10 -22 -13 -3 -31 -6 -41 -6 -15 0 -16 2 -5 14 7 8 15
10 16 5 2 -5 8 -9 13 -9 4 0 6 6 3 13 -2 7 9 28 26 45 31 33 45 39 54 23z
m307 -22 c10 -6 7 -8 -9 -6 -15 1 -22 8 -22 22 0 15 2 17 9 6 5 -7 15 -17 22
-22z m-67 -3 c-7 -18 -29 -22 -39 -6 -3 6 3 10 14 10 12 0 21 5 21 12 0 6 2 9
5 6 3 -3 3 -13 -1 -22z m164 -16 c0 -27 -5 -40 -14 -40 -8 0 -14 11 -14 26 0
22 -2 25 -15 14 -12 -10 -15 -10 -15 4 0 9 8 16 19 16 11 0 23 5 26 10 11 18
14 11 13 -30z m522 34 c0 -8 -19 -13 -24 -6 -3 5 1 9 9 9 8 0 15 -2 15 -3z
m-1508 -57 c-4 -14 -7 -16 -13 -5 -5 7 -9 9 -9 3 0 -5 -5 -2 -11 8 -8 13 -7
22 2 33 10 12 13 12 24 -3 7 -9 10 -25 7 -36z m438 21 c-25 -21 -29 -20 -34 9
-4 16 0 19 27 15 l31 -5 -24 -19z m1025 22 c3 -5 1 -10 -4 -10 -6 0 -11 5 -11
10 0 6 2 10 4 10 3 0 8 -4 11 -10z m-1882 -20 c9 -11 17 -23 17 -26 0 -8 -49
30 -50 39 0 13 15 7 33 -13z m537 -16 c0 -25 -14 -32 -26 -13 -3 6 0 15 7 20
10 6 11 9 2 9 -7 0 -13 4 -13 10 0 5 7 7 15 4 8 -4 15 -17 15 -30z m453 22 c3
-8 0 -19 -7 -25 -10 -9 -12 -6 -8 14 5 29 8 31 15 11z m-881 -8 c-9 -9 -15 -9
-24 0 -9 9 -7 12 12 12 19 0 21 -3 12 -12z m118 2 c0 -5 -4 -10 -10 -10 -5 0
-10 5 -10 10 0 6 5 10 10 10 6 0 10 -4 10 -10z m50 -1 c0 -5 4 -8 9 -5 14 9
41 -4 41 -20 0 -8 -4 -14 -10 -14 -5 0 -10 7 -10 15 0 9 -6 15 -12 14 -24 -3
-38 1 -38 11 0 6 5 10 10 10 6 0 10 -5 10 -11z m1250 -1 c0 -5 -11 -8 -25 -8
-14 0 -25 3 -25 8 0 4 11 7 25 7 14 0 25 -3 25 -7z m107 -8 c-1 -20 -8 -25
-20 -14 -3 3 0 12 6 20 16 17 16 17 14 -6z m-825 -4 c7 4 8 2 4 -5 -9 -13 -26
-5 -25 12 0 9 2 8 6 -1 2 -6 10 -9 15 -6z m366 -17 c-3 -8 -7 -3 -11 10 -4 17
-3 21 5 13 5 -5 8 -16 6 -23z m-1118 6 c0 -12 -19 -12 -23 0 -4 9 -1 12 9 8 7
-3 14 -7 14 -8z m75 5 c3 -5 0 -10 -7 -10 -9 0 -9 -3 2 -10 13 -9 13 -11 0
-20 -23 -15 -45 -13 -31 3 6 8 8 17 5 20 -8 7 4 27 16 27 5 0 12 -4 15 -10z
m130 -23 c1 -15 -4 -27 -11 -27 -13 0 -26 39 -18 52 11 17 29 1 29 -25z m438
13 c9 -11 14 -20 11 -20 -4 0 -1 -6 5 -14 9 -11 9 -16 0 -22 -7 -4 -9 -3 -5 4
3 6 -2 16 -13 22 -13 7 -18 16 -14 27 5 12 2 15 -10 10 -9 -3 -17 -2 -17 3 0
17 25 11 43 -10z m354 14 c-3 -3 -12 -4 -19 -1 -8 3 -5 6 6 6 11 1 17 -2 13
-5z m44 -11 c12 -16 12 -17 -2 -6 -9 7 -20 9 -24 5 -5 -4 -5 -1 -1 6 9 16 11
15 27 -5z m369 13 c0 -2 -7 -6 -15 -10 -8 -3 -15 -1 -15 4 0 6 7 10 15 10 8 0
15 -2 15 -4z m-613 -26 c-1 -11 -5 -20 -9 -20 -10 0 -10 4 -2 24 8 22 13 20
11 -4z m733 10 c0 -5 -7 -10 -16 -10 -8 0 -12 5 -9 10 3 6 10 10 16 10 5 0 9
-4 9 -10z m-1372 -28 c6 -18 -15 -14 -22 4 -4 10 -1 14 6 12 6 -2 14 -10 16
-16z m865 -24 c-2 -5 3 -8 11 -8 9 0 16 -4 16 -8 0 -10 -57 -9 -67 1 -3 4 1 7
10 7 20 0 21 4 6 33 l-12 22 20 -20 c11 -11 19 -23 16 -27z m67 21 c0 -5 -4
-9 -10 -9 -5 0 -10 7 -10 16 0 8 5 12 10 9 6 -3 10 -10 10 -16z m80 -4 c-7 -9
-15 -13 -18 -10 -3 2 1 11 8 20 7 9 15 13 18 10 3 -2 -1 -11 -8 -20z m265 15
c-3 -5 -10 -10 -16 -10 -5 0 -9 5 -9 10 0 6 7 10 16 10 8 0 12 -4 9 -10z m235
-6 c0 -8 -5 -12 -10 -9 -6 4 -8 11 -5 16 9 14 15 11 15 -7z m-1769 -21 c-12
-20 -14 -14 -5 12 4 9 9 14 11 11 3 -2 0 -13 -6 -23z m494 17 c3 -5 1 -10 -4
-10 -6 0 -11 5 -11 10 0 6 2 10 4 10 3 0 8 -4 11 -10z m42 -12 c-3 -8 -6 -5
-6 6 -1 11 2 17 5 13 3 -3 4 -12 1 -19z m473 18 c0 -13 -29 -57 -36 -54 -12 4
-12 30 1 45 9 11 35 18 35 9z m314 -5 c3 -5 -1 -14 -8 -20 -12 -10 -13 -8 -9
8 6 23 9 25 17 12z m-934 -5 c0 -11 -19 -15 -25 -6 -3 5 1 10 9 10 9 0 16 -2
16 -4z m275 -6 c-3 -5 -12 -10 -18 -10 -7 0 -6 4 3 10 19 12 23 12 15 0z m-31
-16 c8 -21 8 -21 -8 -27 -9 -4 -13 2 -13 19 0 27 12 32 21 8z m741 7 c3 -5 1
-12 -5 -16 -5 -3 -10 1 -10 9 0 18 6 21 15 7z m-559 -29 c-9 -9 -19 -12 -23
-8 -5 5 -2 11 5 13 6 3 10 9 7 14 -4 5 1 6 10 3 15 -6 15 -8 1 -22z m232 5 c3
-12 -4 -17 -23 -17 -23 0 -25 2 -15 21 13 23 33 21 38 -4z m-1008 9 c0 -2 -7
-6 -15 -10 -8 -3 -15 -1 -15 4 0 6 7 10 15 10 8 0 15 -2 15 -4z m450 -13 c0
-7 -4 -13 -9 -13 -5 0 -11 6 -14 13 -3 8 1 14 9 14 8 0 14 -6 14 -14z m73 2
c1 -5 -6 -11 -15 -13 -11 -2 -18 3 -18 13 0 17 30 18 33 0z m646 -7 c5 -15 4
-26 -3 -30 -6 -4 -13 -2 -15 5 -2 7 -10 16 -17 20 -21 12 -17 27 6 27 12 0 24
-9 29 -22z m-315 -4 c5 -14 4 -15 -9 -4 -17 14 -19 20 -6 20 5 0 12 -7 15 -16z
m356 -11 c0 -13 -3 -13 -15 -3 -8 7 -12 16 -9 21 8 13 24 1 24 -18z m54 11 c9
-24 7 -28 -7 -16 -10 8 -16 6 -25 -9 -7 -11 -10 -25 -6 -32 5 -9 4 -9 -5 -1
-9 8 -8 18 6 42 20 36 28 39 37 16z m546 12 c0 -3 -4 -8 -10 -11 -5 -3 -10 -1
-10 4 0 6 5 11 10 11 6 0 10 -2 10 -4z m-1476 -28 c-4 -6 -10 -5 -15 3 -6 10
-9 11 -9 2 0 -7 -5 -13 -11 -13 -8 0 -8 4 1 14 13 16 44 10 34 -6z m140 1 c-3
-5 -10 -7 -15 -3 -5 3 -7 10 -3 15 3 5 10 7 15 3 5 -3 7 -10 3 -15z m1093 -5
c-9 -9 -28 6 -21 18 4 6 10 6 17 -1 6 -6 8 -13 4 -17z m-1437 12 c0 -3 -4 -8
-10 -11 -5 -3 -10 -1 -10 4 0 6 5 11 10 11 6 0 10 -2 10 -4z m582 -4 c-7 -5
-10 -16 -6 -25 3 -10 1 -17 -5 -17 -6 0 -11 11 -11 25 0 17 5 25 18 25 12 0
14 -2 4 -8z m-142 -18 c0 -8 -5 -12 -10 -9 -6 4 -8 11 -5 16 9 14 15 11 15 -7z
m98 -1 c16 -16 16 -16 -1 -10 -10 4 -23 7 -28 7 -5 0 -9 5 -9 10 0 15 20 12
38 -7z m753 0 c13 -15 12 -15 -11 -3 -34 17 -36 20 -18 20 9 0 22 -7 29 -17z
m194 7 c3 -5 1 -10 -4 -10 -6 0 -11 5 -11 10 0 6 2 10 4 10 3 0 8 -4 11 -10z
m-1242 -7 c-7 -2 -19 -2 -25 0 -7 3 -2 5 12 5 14 0 19 -2 13 -5z m675 -10 c-6
-7 -14 -11 -18 -8 -5 3 -11 1 -15 -5 -3 -5 -1 -10 4 -10 6 0 11 -8 11 -17 0
-15 -2 -14 -19 3 -10 10 -15 20 -10 22 4 2 5 10 2 17 -3 11 3 14 25 12 23 -1
28 -5 20 -14z m-993 -11 c-3 -3 -11 0 -18 7 -9 10 -8 11 6 5 10 -3 15 -9 12
-12z m283 0 c2 -7 -3 -12 -12 -12 -9 0 -16 7 -16 16 0 17 22 14 28 -4z m92 8
c0 -5 -4 -10 -10 -10 -5 0 -10 5 -10 10 0 6 5 10 10 10 6 0 10 -4 10 -10z
m190 1 c0 -6 -4 -13 -10 -16 -5 -3 -10 1 -10 9 0 9 5 16 10 16 6 0 10 -4 10
-9z m330 0 c0 -5 -7 -11 -14 -14 -10 -4 -13 -1 -9 9 6 15 23 19 23 5z m198
-16 c-3 -3 -9 2 -12 12 -6 14 -5 15 5 6 7 -7 10 -15 7 -18z m392 21 c0 -2 -7
-7 -16 -10 -8 -3 -12 -2 -9 4 6 10 25 14 25 6z m-1271 -27 c-22 -13 -31 -11
-17 5 7 8 17 12 22 9 4 -3 2 -9 -5 -14z m261 11 c12 -8 11 -10 -7 -10 -13 0
-23 5 -23 10 0 13 11 13 30 0z m1084 -6 c3 -7 -2 -10 -15 -7 -22 6 -26 20 -4
20 8 0 16 -6 19 -13z m-229 -4 c-3 -5 -14 -10 -23 -9 -14 0 -13 2 3 9 27 11
27 11 20 0z m289 -5 c4 -13 2 -14 -14 -5 -23 13 -26 20 -6 20 8 0 16 -7 20
-15z m-1184 -11 c0 -8 -4 -12 -10 -9 -5 3 -10 10 -10 16 0 5 5 9 10 9 6 0 10
-7 10 -16z m100 1 c0 -9 -9 -15 -25 -15 -26 0 -34 15 -12 23 23 10 37 7 37 -8z
m190 -4 c5 -8 13 -10 21 -5 11 6 11 4 0 -10 -13 -16 -16 -16 -26 -2 -8 10 -15
12 -21 6 -6 -6 -10 -3 -10 9 0 21 23 22 36 2z m119 -2 c-19 -12 -29 -11 -29 2
0 5 5 7 10 4 6 -3 10 -1 10 5 0 6 5 8 11 4 8 -4 7 -9 -2 -15z m81 4 c21 -18
27 -53 10 -53 -5 0 -10 9 -10 20 0 11 -4 20 -10 20 -5 0 -7 -7 -4 -15 4 -9 0
-15 -10 -15 -18 0 -21 15 -5 25 6 4 8 13 5 21 -7 19 0 18 24 -3z m88 -3 c7
-11 11 -20 9 -20 -2 0 -12 9 -22 20 -10 11 -14 20 -9 20 5 0 15 -9 22 -20z
m477 1 c-3 -6 -11 -8 -17 -5 -6 4 -5 9 3 15 16 10 23 4 14 -10z m-1265 0 c0
-5 -7 -12 -16 -15 -14 -5 -15 -4 -4 9 14 17 20 19 20 6z m446 -3 c4 -6 3 -8
-4 -4 -6 3 -15 -1 -20 -10 -8 -15 -10 -15 -15 0 -4 10 -3 15 3 11 6 -3 10 -1
10 4 0 15 17 14 26 -1z m384 -4 c0 -8 -4 -12 -10 -9 -5 3 -10 10 -10 16 0 5 5
9 10 9 6 0 10 -7 10 -16z m-586 -9 c-4 -8 -1 -15 7 -15 7 0 9 -3 6 -6 -4 -4
-14 -1 -22 6 -13 11 -13 15 -3 21 18 12 18 11 12 -6z m1061 5 c3 -6 -1 -13
-10 -16 -19 -8 -30 0 -20 15 8 14 22 14 30 1z m-1291 -15 c-4 -8 -11 -12 -16
-9 -6 4 -5 10 3 15 19 12 19 11 13 -6z m319 0 c-3 -9 -8 -14 -10 -11 -3 3 -2
9 2 15 9 16 15 13 8 -4z m303 -12 c-10 -10 -19 5 -10 18 6 11 8 11 12 0 2 -7
1 -15 -2 -18z m314 23 c0 -2 -7 -6 -15 -10 -8 -3 -15 -1 -15 4 0 6 7 10 15 10
8 0 15 -2 15 -4z m-754 -43 c2 -16 1 -16 -12 1 -8 11 -14 24 -14 30 0 16 24
-12 26 -31z m779 27 c3 -5 1 -10 -4 -10 -6 0 -11 5 -11 10 0 6 2 10 4 10 3 0
8 -4 11 -10z m-917 -18 c2 -7 -3 -12 -12 -12 -9 0 -16 7 -16 16 0 17 22 14 28
-4z m472 8 c0 -5 -8 -10 -17 -10 -15 0 -16 2 -3 10 19 12 20 12 20 0z m725
-10 c-3 -5 -11 -10 -16 -10 -6 0 -7 5 -4 10 3 6 11 10 16 10 6 0 7 -4 4 -10z
m-1345 -15 c7 -9 10 -18 6 -22 -3 -3 -6 -1 -6 6 0 8 -7 10 -20 6 -15 -5 -18
-3 -14 9 8 20 18 20 34 1z m230 11 c0 -3 -4 -8 -10 -11 -5 -3 -10 -1 -10 4 0
6 5 11 10 11 6 0 10 -2 10 -4z m35 -36 c-3 -6 -18 -10 -32 -10 l-26 0 24 23
c18 17 26 19 32 10 4 -7 5 -18 2 -23z m145 36 c0 -3 -4 -8 -10 -11 -5 -3 -10
-1 -10 4 0 6 5 11 10 11 6 0 10 -2 10 -4z m875 -6 c3 -5 -1 -10 -9 -10 -9 0
-16 5 -16 10 0 6 4 10 9 10 6 0 13 -4 16 -10z m-438 -6 c-3 -3 -12 -4 -19 -1
-8 3 -5 6 6 6 11 1 17 -2 13 -5z m-339 -12 c16 11 16 11 0 -6 -17 -19 -44 -13
-31 7 5 8 8 8 11 -1 3 -10 7 -10 20 0z m422 4 c0 -2 -7 -9 -15 -16 -12 -10
-15 -10 -15 4 0 9 7 16 15 16 8 0 15 -2 15 -4z m180 -11 c0 -9 -41 -11 -47 -3
-3 7 -1 8 5 4 7 -4 12 -3 12 3 0 6 7 8 15 5 8 -4 15 -7 15 -9z m75 5 c3 -5 1
-10 -4 -10 -6 0 -11 5 -11 10 0 6 2 10 4 10 3 0 8 -4 11 -10z m-1095 -10 c0
-5 -2 -10 -4 -10 -3 0 -8 5 -11 10 -3 6 -1 10 4 10 6 0 11 -4 11 -10z m94 -15
c19 -29 15 -31 -19 -9 -13 9 -29 13 -34 9 -7 -3 -8 0 -5 9 9 24 40 19 58 -9z
m251 -15 c-3 -6 2 -11 12 -11 17 -1 17 -2 0 -6 -9 -2 -14 -9 -11 -15 4 -6 -2
-5 -15 1 -24 13 -29 23 -7 15 11 -4 13 2 10 28 -4 27 -2 30 6 15 6 -9 8 -22 5
-27z m715 30 c0 -5 -5 -10 -11 -10 -5 0 -7 5 -4 10 3 6 8 10 11 10 2 0 4 -4 4
-10z m-378 -54 c-9 -15 -22 22 -15 41 6 16 8 15 13 -7 4 -14 5 -29 2 -34z
m538 29 c0 -8 -4 -15 -10 -15 -5 0 -7 7 -4 15 4 8 8 15 10 15 2 0 4 -7 4 -15z
m-800 -17 c0 -18 -2 -20 -9 -8 -6 8 -7 18 -5 22 9 14 14 9 14 -14z m60 2 c-8
-5 -22 -9 -30 -9 -10 0 -8 3 5 9 27 12 43 12 25 0z m282 -8 c15 -6 15 -9 1
-27 l-15 -20 4 20 c2 16 -2 19 -22 17 -19 -2 -22 0 -10 8 17 11 19 11 42 2z
m155 -14 c-3 -8 -6 -5 -6 6 -1 11 2 17 5 13 3 -3 4 -12 1 -19z m-872 2 c3 -5
1 -10 -4 -10 -6 0 -11 5 -11 10 0 6 2 10 4 10 3 0 8 -4 11 -10z m580 -8 c-3
-3 -11 0 -18 7 -9 10 -8 11 6 5 10 -3 15 -9 12 -12z m186 6 c0 -10 2 -10 6 0
2 6 9 12 15 12 7 0 6 -5 -2 -14 -12 -15 -40 -11 -40 5 0 14 20 11 21 -3z m346
-4 c-3 -3 -12 -4 -19 -1 -8 3 -5 6 6 6 11 1 17 -2 13 -5z m43 0 c0 -8 -19 -13
-24 -6 -3 5 1 9 9 9 8 0 15 -2 15 -3z m-480 -25 c0 -14 -17 -10 -23 5 -4 10
-1 13 9 9 7 -3 14 -9 14 -14z m375 11 c3 -5 -1 -10 -9 -10 -9 0 -16 5 -16 10
0 6 4 10 9 10 6 0 13 -4 16 -10z m-945 -21 c0 -6 -4 -7 -10 -4 -5 3 -10 11
-10 16 0 6 5 7 10 4 6 -3 10 -11 10 -16z m330 18 c0 -2 -10 -12 -22 -23 -14
-12 -18 -13 -10 -3 6 9 9 19 5 22 -3 4 1 7 10 7 10 0 17 -2 17 -3z m415 -7
c-3 -5 -12 -10 -18 -10 -7 0 -6 4 3 10 19 12 23 12 15 0z m-275 -20 c0 -5 -7
-10 -16 -10 -8 0 -12 5 -9 10 3 6 10 10 16 10 5 0 9 -4 9 -10z m-86 -8 c2 -4
-5 -9 -17 -9 -17 -2 -19 0 -7 7 18 12 18 12 24 2z m-127 -23 c1 -11 -5 -19
-14 -19 -9 0 -13 3 -10 7 4 3 3 11 -3 17 -6 8 -3 12 8 13 11 1 18 -6 19 -18z
m183 -4 c0 -8 -4 -15 -10 -15 -5 0 -7 7 -4 15 4 8 8 15 10 15 2 0 4 -7 4 -15z
m130 11 c0 -3 -4 -8 -10 -11 -5 -3 -10 -1 -10 4 0 6 5 11 10 11 6 0 10 -2 10
-4z m-410 -26 c0 -5 -4 -10 -9 -10 -6 0 -13 5 -16 10 -3 6 1 10 9 10 9 0 16
-4 16 -10z m440 -10 c0 -5 -5 -10 -11 -10 -5 0 -7 5 -4 10 3 6 8 10 11 10 2 0
4 -4 4 -10z m-42 -35 c-3 -3 -9 2 -12 12 -6 14 -5 15 5 6 7 -7 10 -15 7 -18z
m-208 11 c0 -3 -4 -8 -10 -11 -5 -3 -10 -1 -10 4 0 6 5 11 10 11 6 0 10 -2 10
-4z m143 -9 c-3 -5 -11 -6 -19 -3 -8 3 -14 1 -14 -4 0 -6 -8 -10 -17 -10 -15
0 -15 1 1 13 19 14 57 18 49 4z"/>
<path d="M1370 2090 c0 -5 5 -10 11 -10 5 0 7 5 4 10 -3 6 -8 10 -11 10 -2 0
-4 -4 -4 -10z"/>
<path d="M1098 2071 c-22 -21 -23 -33 -4 -29 8 2 15 0 15 -4 2 -25 -1 -30 -15
-24 -15 6 -15 4 -3 -10 8 -10 15 -12 17 -5 2 6 9 11 15 11 15 0 41 40 31 48
-4 4 -9 1 -11 -6 -4 -10 -8 -10 -18 -2 -8 6 -11 18 -8 26 7 18 2 17 -19 -5z"/>
<path d="M1250 2064 c0 -3 7 -12 15 -20 13 -14 15 -13 15 5 0 12 -6 21 -15 21
-8 0 -15 -3 -15 -6z"/>
<path d="M1388 2062 c-10 -2 -18 -9 -18 -17 0 -10 9 -11 36 -5 35 8 56 19 38
21 -5 0 -16 2 -24 3 -8 1 -23 1 -32 -2z"/>
<path d="M1225 2039 c-9 -14 -2 -20 14 -10 8 6 9 11 3 15 -6 3 -14 1 -17 -5z"/>
<path d="M1293 2024 c-13 -14 -17 -27 -12 -36 7 -10 9 -9 9 3 0 18 26 33 41
23 5 -3 9 -20 9 -37 l1 -32 13 30 c8 19 15 25 20 17 4 -7 15 -12 24 -12 15 0
15 2 2 10 -13 8 -12 10 4 10 11 0 16 3 12 7 -4 4 -23 6 -42 4 -32 -2 -48 13
-21 22 6 2 0 6 -14 9 -19 3 -32 -2 -46 -18z"/>
<path d="M1172 2028 c2 -6 15 -15 28 -20 23 -9 23 -8 5 12 -20 22 -39 27 -33
8z"/>
<path d="M1130 1985 c0 -8 0 -18 1 -21 0 -4 -5 -11 -13 -15 -9 -6 -9 -9 -1 -9
6 0 14 4 18 10 3 5 12 7 20 3 23 -8 18 20 -5 35 -17 10 -20 10 -20 -3z"/>
<path d="M1757 1979 c7 -7 15 -10 18 -7 3 3 -2 9 -12 12 -14 6 -15 5 -6 -5z"/>
<path d="M1076 1965 c-3 -8 -3 -15 0 -15 3 0 12 7 20 15 13 13 13 15 1 15 -8
0 -17 -7 -21 -15z"/>
<path d="M1440 1970 c0 -5 5 -10 11 -10 5 0 7 5 4 10 -3 6 -8 10 -11 10 -2 0
-4 -4 -4 -10z"/>
<path d="M1180 1960 c0 -5 7 -10 15 -10 8 0 15 5 15 10 0 6 -7 10 -15 10 -8 0
-15 -4 -15 -10z"/>
<path d="M1620 1967 c0 -3 7 -12 15 -21 16 -16 45 -12 45 6 0 6 -7 7 -16 4 -9
-4 -23 -1 -30 5 -8 6 -14 9 -14 6z"/>
<path d="M771 1934 c0 -11 3 -14 6 -6 3 7 2 16 -1 19 -3 4 -6 -2 -5 -13z"/>
<path d="M1796 1936 c7 -18 32 -28 39 -16 9 15 -4 30 -25 30 -13 0 -17 -5 -14
-14z"/>
<path d="M1128 1923 c6 -2 12 -11 12 -19 0 -8 7 -14 15 -14 8 0 15 4 15 10 0
10 -33 31 -47 29 -4 0 -2 -3 5 -6z"/>
<path d="M790 1905 c0 -8 5 -15 10 -15 6 0 10 7 10 15 0 8 -4 15 -10 15 -5 0
-10 -7 -10 -15z"/>
<path d="M1460 1911 c0 -5 5 -13 10 -16 6 -3 10 -2 10 4 0 5 -4 13 -10 16 -5
3 -10 2 -10 -4z"/>
<path d="M1217 1899 c7 -7 15 -10 18 -7 3 3 -2 9 -12 12 -14 6 -15 5 -6 -5z"/>
<path d="M1640 1900 c-23 -7 -23 -8 -3 -9 12 -1 25 4 28 9 3 6 5 10 3 9 -2 -1
-14 -5 -28 -9z"/>
<path d="M1041 1884 c0 -11 3 -14 6 -6 3 7 2 16 -1 19 -3 4 -6 -2 -5 -13z"/>
<path d="M1077 1884 c2 -7 11 -10 19 -7 19 7 18 10 -5 16 -13 3 -18 1 -14 -9z"/>
<path d="M970 1875 c-11 -13 -10 -14 4 -9 9 3 16 10 16 15 0 13 -6 11 -20 -6z"/>
<path d="M1132 1874 c10 -10 20 -16 22 -13 3 3 -5 11 -17 18 -21 13 -21 12 -5
-5z"/>
<path d="M1827 1859 c-4 -15 -11 -20 -22 -15 -12 4 -19 0 -22 -14 -3 -11 -12
-20 -19 -20 -18 0 -18 -6 3 -29 19 -23 33 -19 26 7 -2 11 4 25 14 33 16 13 17
12 5 -2 -8 -11 -9 -24 -4 -39 7 -20 10 -21 15 -7 4 10 11 17 17 17 6 0 8 -4 5
-10 -10 -16 1 -12 15 6 8 8 9 14 4 13 -5 -1 -18 0 -29 1 -14 1 -9 5 14 12 24
7 36 6 41 -2 5 -8 10 -9 14 -2 7 11 -23 24 -45 20 -9 -2 -14 7 -14 25 1 32
-10 36 -18 6z"/>
<path d="M859 1863 c-6 -43 -4 -61 8 -71 10 -10 13 -10 13 3 0 10 10 15 33 16
25 0 28 2 13 8 -14 5 -16 10 -8 15 7 4 16 4 22 1 6 -3 7 1 4 9 -9 22 -31 20
-37 -4 -6 -23 -37 -17 -37 7 0 10 6 13 16 9 8 -3 12 -2 9 4 -7 12 -35 13 -36
3z"/>
<path d="M1080 1855 c-19 -23 -8 -26 20 -5 19 15 21 20 9 20 -9 0 -22 -7 -29
-15z"/>
<path d="M1630 1853 c0 -7 7 -13 16 -13 9 0 18 -9 21 -20 6 -22 23 -18 23 6 0
8 -7 14 -16 14 -12 0 -14 3 -6 13 8 9 4 12 -14 12 -13 0 -24 -6 -24 -12z"/>
<path d="M960 1830 c0 -12 7 -20 16 -20 11 0 14 -5 10 -16 -6 -14 -4 -15 9 -4
14 12 15 10 10 -13 -5 -17 -3 -27 4 -27 6 0 11 11 11 25 0 14 6 25 13 25 8 0
8 3 -2 9 -8 5 -20 7 -27 4 -7 -2 -15 5 -19 16 -8 27 -25 27 -25 1z"/>
<path d="M990 1840 c0 -5 5 -10 10 -10 6 0 10 5 10 10 0 6 -4 10 -10 10 -5 0
-10 -4 -10 -10z"/>
<path d="M1110 1825 c0 -8 4 -15 10 -15 5 0 7 7 4 15 -4 8 -8 15 -10 15 -2 0
-4 -7 -4 -15z"/>
<path d="M935 1789 c-4 -6 -5 -12 -2 -15 2 -3 7 2 10 11 7 17 1 20 -8 4z"/>
<path d="M1690 1784 c0 -8 5 -12 10 -9 6 4 8 11 5 16 -9 14 -15 11 -15 -7z"/>
<path d="M887 1756 c-4 -10 -1 -13 8 -9 8 3 12 9 9 14 -7 12 -11 11 -17 -5z"/>
<path d="M1750 1740 c0 -16 29 -24 52 -13 20 8 20 10 4 16 -10 4 -15 3 -11 -3
3 -6 -1 -10 -9 -10 -9 0 -16 5 -16 10 0 6 -4 10 -10 10 -5 0 -10 -5 -10 -10z"/>
<path d="M776 1731 c-4 -5 -2 -12 4 -16 5 -3 10 -17 10 -30 0 -13 5 -27 11
-31 8 -4 7 -9 -2 -15 -11 -7 -11 -9 -1 -9 7 0 15 7 18 15 4 8 11 12 18 8 8 -5
8 -3 0 8 -6 8 -10 24 -8 37 3 16 0 21 -7 16 -7 -4 -18 1 -25 10 -7 10 -15 13
-18 7z m41 -56 c0 -8 -4 -15 -9 -15 -10 0 -11 14 -1 23 9 10 10 9 10 -8z"/>
<path d="M991 1714 c0 -11 3 -14 6 -6 3 7 2 16 -1 19 -3 4 -6 -2 -5 -13z"/>
<path d="M850 1709 c0 -5 5 -7 10 -4 6 3 10 8 10 11 0 2 -4 4 -10 4 -5 0 -10
-5 -10 -11z"/>
<path d="M940 1710 c0 -5 5 -10 11 -10 5 0 7 5 4 10 -3 6 -8 10 -11 10 -2 0
-4 -4 -4 -10z"/>
<path d="M1725 1710 c-16 -7 -17 -9 -3 -9 9 -1 20 4 23 9 7 11 7 11 -20 0z"/>
<path d="M680 1690 c0 -5 5 -10 10 -10 6 0 10 5 10 10 0 6 -4 10 -10 10 -5 0
-10 -4 -10 -10z"/>
<path d="M851 1678 c-1 -20 14 -24 25 -6 4 6 3 8 -4 4 -5 -3 -13 0 -15 6 -3 8
-6 6 -6 -4z"/>
<path d="M900 1659 c0 -5 5 -7 10 -4 6 3 10 8 10 11 0 2 -4 4 -10 4 -5 0 -10
-5 -10 -11z"/>
<path d="M1805 1650 c-3 -5 1 -10 9 -10 9 0 16 -8 17 -17 0 -11 3 -13 6 -5 2
6 11 12 19 12 9 0 12 5 9 11 -4 6 -13 8 -21 5 -8 -3 -14 -1 -14 4 0 13 -17 13
-25 0z"/>
<path d="M646 1624 c-4 -9 -4 -19 -1 -22 3 -3 5 0 5 6 0 7 9 12 21 12 11 0 17
5 14 10 -10 16 -32 12 -39 -6z"/>
<path d="M658 1573 c7 -3 16 -2 19 1 4 3 -2 6 -13 5 -11 0 -14 -3 -6 -6z"/>
<path d="M710 1571 c0 -5 -3 -18 -6 -28 -6 -16 -5 -16 9 2 15 19 20 15 19 -15
0 -3 7 -12 16 -20 14 -13 15 -12 10 2 -4 8 -1 21 5 28 9 10 9 11 -1 5 -9 -4
-15 0 -19 14 -5 20 -33 30 -33 12z"/>
<path d="M1745 1570 c3 -5 8 -10 11 -10 2 0 4 5 4 10 0 6 -5 10 -11 10 -5 0
-7 -4 -4 -10z"/>
<path d="M1810 1565 c-7 -8 -18 -15 -26 -15 -27 0 -23 -18 6 -22 24 -4 27 -2
19 9 -7 8 -8 13 -1 13 5 0 12 7 16 15 3 8 4 15 2 15 -2 0 -9 -7 -16 -15z"/>
<path d="M671 1523 c8 -9 13 -24 11 -35 -2 -11 3 -18 12 -18 9 0 16 5 16 10 0
6 -5 10 -11 10 -5 0 -7 5 -4 10 3 6 0 17 -9 25 -20 20 -32 19 -15 -2z"/>
<path d="M790 1500 c0 -6 7 -10 15 -10 8 0 15 2 15 4 0 2 -7 6 -15 10 -8 3
-15 1 -15 -4z"/>
<path d="M2098 1493 c7 -3 16 -2 19 1 4 3 -2 6 -13 5 -11 0 -14 -3 -6 -6z"/>
<path d="M646 1475 c-3 -9 0 -15 8 -15 8 0 22 -3 32 -7 14 -5 13 -2 -4 15 -26
26 -28 26 -36 7z"/>
<path d="M745 1479 c-4 -6 -5 -12 -2 -15 2 -3 7 2 10 11 7 17 1 20 -8 4z"/>
<path d="M1785 1480 c-3 -6 1 -17 9 -26 9 -8 16 -11 16 -5 0 5 -5 13 -10 16
-6 4 -8 11 -5 16 4 5 4 9 1 9 -3 0 -8 -5 -11 -10z"/>
<path d="M1909 1438 c-6 -21 -5 -39 2 -44 5 -3 9 6 9 20 0 21 -7 36 -11 24z"/>
<path d="M695 1420 c4 -6 11 -8 16 -5 16 10 10 -12 -10 -36 -18 -23 -18 -59 1
-59 6 0 8 9 5 19 -3 14 -1 18 9 14 8 -3 14 -1 14 5 0 6 -4 12 -10 14 -18 6 7
30 34 31 14 1 28 8 31 15 5 15 -10 16 -35 2 -13 -7 -21 -7 -25 0 -3 5 -13 10
-21 10 -8 0 -12 -5 -9 -10z"/>
<path d="M1822 1404 c-7 -8 -8 -14 -2 -14 5 0 9 -3 9 -7 -4 -25 4 -33 31 -33
17 0 30 5 30 11 0 6 -9 8 -20 4 -26 -8 -44 3 -31 19 15 18 -1 37 -17 20z"/>
<path d="M556 1325 c-24 -18 -12 -36 25 -33 34 3 36 9 12 31 -15 13 -21 13
-37 2z"/>
<path d="M717 1327 c-3 -8 -1 -20 4 -28 7 -11 9 -11 9 4 0 9 5 17 11 17 5 0 7
5 4 10 -9 14 -22 12 -28 -3z"/>
<path d="M1823 1325 c0 -8 4 -12 9 -9 5 3 6 10 3 15 -9 13 -12 11 -12 -6z"/>
<path d="M635 1300 c-3 -5 -1 -10 4 -10 6 0 11 5 11 10 0 6 -2 10 -4 10 -3 0
-8 -4 -11 -10z"/>
<path d="M670 1298 c0 -9 5 -20 10 -23 13 -8 13 5 0 25 -8 13 -10 13 -10 -2z"/>
<path d="M1867 1303 c-11 -10 -8 -43 3 -43 6 0 10 -7 10 -15 0 -8 5 -15 10
-15 6 0 10 -11 10 -24 0 -14 5 -28 11 -32 9 -5 10 1 5 21 -6 24 -5 27 7 17 12
-10 15 -8 19 12 4 17 1 23 -6 18 -32 -20 -63 9 -51 48 6 19 -5 27 -18 13z"/>
<path d="M1745 1240 c2 -35 9 -57 27 -78 25 -30 25 -30 38 -8 9 16 9 18 0 9
-10 -9 -17 -7 -34 9 -15 14 -17 22 -8 25 6 3 12 9 12 14 0 6 -5 7 -12 3 -8 -5
-9 -2 -5 9 3 9 2 19 -4 23 -5 3 -7 14 -4 25 4 10 2 19 -3 19 -5 0 -8 -22 -7
-50z"/>
<path d="M1890 1281 c0 -5 5 -13 10 -16 6 -3 10 -2 10 4 0 5 -4 13 -10 16 -5
3 -10 2 -10 -4z"/>
<path d="M601 1266 c-13 -15 -7 -36 9 -36 12 0 19 25 11 39 -6 9 -11 8 -20 -3z"/>
<path d="M510 1262 c0 -5 7 -13 16 -16 10 -4 14 -1 12 6 -5 15 -28 23 -28 10z"/>
<path d="M745 1260 c3 -5 8 -10 11 -10 2 0 4 5 4 10 0 6 -5 10 -11 10 -5 0 -7
-4 -4 -10z"/>
<path d="M660 1240 c-13 -8 -12 -10 3 -10 9 0 17 5 17 10 0 12 -1 12 -20 0z"/>
<path d="M1856 1215 c4 -8 10 -15 15 -15 4 0 6 7 3 15 -4 8 -10 15 -15 15 -4
0 -6 -7 -3 -15z"/>
<path d="M576 1185 c-17 -13 -17 -14 7 -20 14 -4 27 -13 29 -20 2 -10 6 -10
13 -2 7 8 4 19 -10 34 -18 18 -23 19 -39 8z"/>
<path d="M1875 1170 c-3 -5 -1 -10 4 -10 6 0 11 5 11 10 0 6 -2 10 -4 10 -3 0
-8 -4 -11 -10z"/>
<path d="M1705 1111 c-17 -7 -17 -8 8 -13 19 -4 27 -1 27 8 0 15 -6 16 -35 5z"/>
<path d="M836 1101 c-3 -5 1 -11 9 -14 9 -4 12 -1 8 9 -6 16 -10 17 -17 5z"/>
<path d="M795 1045 c0 -18 3 -21 13 -13 6 6 12 14 12 18 0 4 -6 10 -12 13 -8
3 -13 -4 -13 -18z"/>
<path d="M730 1040 c0 -5 7 -10 15 -10 8 0 15 5 15 10 0 6 -7 10 -15 10 -8 0
-15 -4 -15 -10z"/>
<path d="M1845 1029 c-4 -6 -5 -12 -2 -15 2 -3 7 2 10 11 7 17 1 20 -8 4z"/>
<path d="M1722 1018 c2 -6 10 -14 16 -16 7 -2 10 2 6 12 -7 18 -28 22 -22 4z"/>
<path d="M1668 1003 c7 -3 16 -2 19 1 4 3 -2 6 -13 5 -11 0 -14 -3 -6 -6z"/>
<path d="M827 993 c-9 -2 -15 -9 -12 -14 9 -14 22 -11 29 6 3 8 4 14 3 14 -1
-1 -10 -3 -20 -6z"/>
<path d="M1766 991 c-4 -5 3 -7 14 -4 17 5 20 0 20 -30 0 -42 24 -104 34 -88
4 6 4 16 1 21 -3 6 1 13 9 16 9 3 16 11 16 17 0 8 -3 8 -11 0 -9 -9 -15 -8
-25 2 -15 15 -19 35 -6 35 4 0 8 9 9 20 1 16 -4 20 -27 20 -16 0 -31 -4 -34
-9z"/>
<path d="M1665 980 c-4 -6 -1 -9 6 -8 19 5 22 -20 2 -25 -16 -4 -16 -5 -1 -6
21 -1 30 12 22 33 -7 18 -20 21 -29 6z"/>
<path d="M777 973 c-4 -3 -7 -11 -7 -17 0 -6 5 -5 12 2 6 6 9 14 7 17 -3 3 -9
2 -12 -2z"/>
<path d="M800 960 c0 -5 5 -10 10 -10 6 0 9 -3 9 -7 -3 -19 2 -33 10 -33 6 0
6 12 0 30 -10 28 -29 41 -29 20z"/>
<path d="M1760 966 c0 -2 6 -9 13 -15 10 -8 14 -7 14 4 0 8 -6 15 -14 15 -7 0
-13 -2 -13 -4z"/>
<path d="M680 945 c0 -9 6 -12 15 -9 8 4 15 10 15 15 0 5 -7 9 -15 9 -8 0 -15
-7 -15 -15z"/>
<path d="M620 935 c0 -2 9 -9 20 -15 15 -8 20 -8 20 3 0 7 -9 13 -20 14 -11 1
-20 0 -20 -2z"/>
<path d="M732 906 c-16 -19 -18 -27 -9 -35 17 -14 41 3 34 23 -4 10 -1 16 8
16 8 0 15 5 15 10 0 18 -26 10 -48 -14z"/>
<path d="M1570 922 c0 -7 -7 -12 -15 -12 -8 0 -15 -4 -15 -10 0 -5 4 -10 9
-10 13 0 35 29 27 37 -3 3 -6 1 -6 -5z"/>
<path d="M897 903 c3 -7 6 -13 8 -13 2 0 5 6 8 13 3 8 -1 14 -8 14 -7 0 -11
-6 -8 -14z"/>
<path d="M1625 910 c3 -5 -3 -11 -12 -13 -10 -3 -3 -5 15 -6 35 -1 44 14 12
22 -11 3 -18 1 -15 -3z"/>
<path d="M793 891 c4 -29 17 -39 17 -13 0 11 -5 24 -10 27 -6 4 -9 -2 -7 -14z"/>
<path d="M1103 900 c2 -8 12 -16 23 -17 13 -2 15 -1 4 4 -8 3 -19 11 -23 17
-6 7 -7 6 -4 -4z"/>
<path d="M866 885 c4 -8 8 -15 10 -15 2 0 4 7 4 15 0 8 -4 15 -10 15 -5 0 -7
-7 -4 -15z"/>
<path d="M1010 876 c0 -8 4 -17 9 -20 5 -4 7 3 4 14 -6 23 -13 26 -13 6z"/>
<path d="M1157 883 c-4 -3 -7 -13 -7 -22 1 -13 3 -13 11 2 11 19 8 33 -4 20z"/>
<path d="M1492 868 c-20 -20 -15 -66 9 -73 11 -4 23 -4 27 -1 3 4 -3 9 -15 12
-14 4 -20 13 -19 30 1 23 16 35 16 13 0 -5 5 -7 10 -4 6 3 10 11 10 16 0 6 -4
8 -9 5 -5 -4 -11 -1 -13 4 -2 7 -8 6 -16 -2z"/>
<path d="M1560 859 c0 -5 5 -7 10 -4 6 3 10 8 10 11 0 2 -4 4 -10 4 -5 0 -10
-5 -10 -11z"/>
<path d="M859 838 c-12 -13 -19 -18 -15 -11 4 7 -1 9 -14 6 -15 -4 -17 -9 -10
-24 6 -10 15 -21 20 -24 6 -4 8 -10 6 -14 -10 -15 12 -34 30 -26 17 8 16 9 -6
13 -23 4 -24 5 -5 13 19 8 19 8 -2 15 -13 3 -23 8 -23 10 0 6 49 52 62 57 9 4
7 6 -4 6 -10 1 -27 -9 -39 -21z"/>
<path d="M1610 850 c0 -5 5 -10 10 -10 6 0 10 5 10 10 0 6 -4 10 -10 10 -5 0
-10 -4 -10 -10z"/>
<path d="M710 845 c0 -5 4 -16 9 -23 6 -11 10 -10 15 4 3 9 4 19 1 22 -3 3 -5
-1 -5 -9 0 -11 -2 -11 -10 1 -5 8 -10 11 -10 5z"/>
<path d="M763 830 c-3 -11 -9 -17 -14 -14 -5 3 -9 0 -9 -5 0 -16 12 -13 39 8
21 16 21 19 6 25 -12 4 -18 0 -22 -14z"/>
<path d="M1163 834 c-7 -7 -13 -19 -13 -26 0 -7 7 -2 16 10 18 26 16 37 -3 16z"/>
<path d="M1540 840 c0 -5 5 -10 11 -10 5 0 7 5 4 10 -3 6 -8 10 -11 10 -2 0
-4 -4 -4 -10z"/>
<path d="M1108 812 c9 -11 21 -16 26 -11 12 11 -2 29 -25 29 -18 0 -18 -1 -1
-18z"/>
<path d="M1394 794 c3 -8 6 -21 6 -27 0 -7 12 -25 26 -40 20 -24 27 -27 39
-17 15 13 11 30 -6 30 -6 0 -7 -4 -4 -10 3 -6 -1 -7 -9 -4 -9 3 -14 10 -11 14
3 5 1 11 -5 15 -5 3 -10 14 -10 25 0 10 -7 21 -16 24 -12 5 -15 2 -10 -10z"/>
<path d="M1546 784 c-23 -22 -20 -30 3 -10 11 10 25 15 32 10 8 -4 10 -3 5 4
-10 16 -22 15 -40 -4z"/>
<path d="M1439 781 c11 -7 11 -9 0 -14 -8 -3 -9 -6 -3 -6 6 -1 17 6 24 14 10
13 9 15 -11 15 -17 0 -20 -3 -10 -9z"/>
<path d="M1230 771 c0 -6 4 -13 10 -16 6 -3 7 1 4 9 -7 18 -14 21 -14 7z"/>
<path d="M1552 754 c-15 -16 -42 -19 -42 -4 0 6 -8 10 -17 10 -16 -1 -16 -2 2
-13 26 -16 83 -16 81 0 -3 20 -10 22 -24 7z"/>
<path d="M1097 744 c-7 -7 14 -44 25 -44 5 0 7 3 6 8 -2 4 2 8 7 9 6 0 9 -3 7
-9 -4 -15 21 -4 26 12 3 7 0 10 -6 6 -6 -3 -13 -2 -17 4 -4 6 -11 7 -17 4 -6
-4 -13 -1 -17 5 -4 6 -10 8 -14 5z"/>
<path d="M1190 720 c0 -5 5 -10 11 -10 5 0 7 5 4 10 -3 6 -8 10 -11 10 -2 0
-4 -4 -4 -10z"/>
<path d="M1270 714 c0 -8 5 -12 10 -9 6 4 8 11 5 16 -9 14 -15 11 -15 -7z"/>
<path d="M1310 701 c0 -5 9 -11 21 -14 16 -4 18 -3 8 9 -13 16 -29 19 -29 5z"/>
<path d="M1173 692 c-7 -4 -8 -13 -4 -20 6 -9 12 -7 26 8 14 15 15 20 4 20 -8
0 -19 -4 -26 -8z"/>
<path d="M1410 621 c0 -6 5 -13 10 -16 6 -3 10 1 10 9 0 9 -4 16 -10 16 -5 0
-10 -4 -10 -9z"/>
<path d="M1495 590 c-4 -6 -11 -8 -16 -5 -5 4 -9 1 -9 -4 0 -6 9 -11 20 -11
11 0 20 7 20 15 0 17 -6 19 -15 5z"/>
<path d="M690 1810 c0 -5 5 -10 11 -10 5 0 7 5 4 10 -3 6 -8 10 -11 10 -2 0
-4 -4 -4 -10z"/>
<path d="M2030 1564 c0 -8 5 -12 10 -9 6 4 8 11 5 16 -9 14 -15 11 -15 -7z"/>
</g>
</svg>
